<?xml version="1.0" encoding="UTF-8"?>
<!DOCTYPE svg PUBLIC "-//W3C//DTD SVG 1.1//EN" "http://www.w3.org/Graphics/SVG/1.1/DTD/svg11.dtd">
<!-- Creator: CorelDRAW 2020 (64-Bit) -->
<svg xmlns="http://www.w3.org/2000/svg" xml:space="preserve" width="426.709mm" height="47.1488mm" version="1.1" style="shape-rendering:geometricPrecision; text-rendering:geometricPrecision; image-rendering:optimizeQuality; fill-rule:evenodd; clip-rule:evenodd"
viewBox="0 0 41715.77 4609.35"
 xmlns:xlink="http://www.w3.org/1999/xlink"
 xmlns:xodm="http://www.corel.com/coreldraw/odm/2003">
 <defs>
  <style type="text/css">
   <![CDATA[
    .str0 {stroke:#469CD6;stroke-width:19.55;stroke-miterlimit:22.9256}
    .fil0 {fill:#0FA0D9}
    .fil1 {fill:#373435;fill-rule:nonzero}
   ]]>
  </style>
 </defs>
 <g id="Capa_x0020_1">
  <metadata id="CorelCorpID_0Corel-Layer"/>
  <g id="_1543283158896">
   <rect class="fil0 str0" x="9.78" y="9.78" width="41696.21" height="4589.8"/>
   <g>
    <path class="fil1" d="M5466.09 2882.01l-47.18 0 -2.48 -49.66c-4.97,-96.84 -9.93,-191.2 -12.42,-288.05 0,-317.84 2.48,-571.12 9.93,-752.39l2.48 -54.63 69.53 4.97 0 -198.65c-9.93,2.48 -17.38,2.48 -27.31,4.97 -32.28,2.48 -64.56,7.45 -94.36,9.93 -111.74,0 -191.2,-2.48 -250.8,-7.45 -9.93,-2.48 -19.87,-2.48 -29.8,-2.48l0 186.24c0,0 0,0 0,0l89.39 -7.45 2.48 57.11c7.45,216.03 7.45,437.03 2.48,650.58 -2.48,134.09 -7.45,268.18 -9.93,399.79l-2.48 57.11 -57.11 -4.97c-9.93,-2.48 -17.38,-2.48 -24.83,-2.48l0 208.58c297.98,-7.45 598.44,-7.45 893.93,-4.97 -2.48,-32.28 -2.48,-67.04 -2.48,-99.33 0,-57.11 0,-114.22 0,-171.34l2.48 -27.31c0,-4.97 0,-7.45 0,-14.9l-211.07 0c0,14.9 0,29.8 2.48,49.66l4.97 57.11 -57.11 4.97c-96.84,0 -178.79,-2.48 -250.8,-4.97zm608.37 -81.94c0,-9.93 0,-24.83 2.48,-47.18l0 -74.49 -407.24 0 -2.48 39.73c0,9.93 -2.48,24.83 0,62.08l2.48 9.93 -9.93 0c-49.66,0 -96.84,-2.48 -141.54,-2.48l-7.45 0 0 -7.45c-4.97,-81.94 -7.45,-161.4 -9.93,-238.38 0,-283.08 2.48,-516.49 7.45,-692.8l0 -7.45 74.49 7.45 0 -419.65 -49.66 9.93c-29.8,4.97 -59.6,9.93 -86.91,12.42l-86.91 9.93c-2.48,0 -2.48,0 -4.97,0 -96.84,0 -176.3,-2.48 -230.93,-7.45 -64.56,-7.45 -84.43,-4.97 -96.84,-4.97l-39.73 4.97 0 382.4 69.53 -2.48c4.97,0 9.93,0 14.9,0l7.45 0 0 7.45c7.45,198.65 7.45,397.3 2.48,590.99 -2.48,116.71 -4.97,230.93 -9.93,342.67l0 9.93 -9.93 0c-19.87,0 -29.8,0 -34.76,0l-39.73 4.97 0 402.27 69.53 -2.48c322.81,-7.45 648.1,-9.93 973.39,-2.48l44.7 0 0 -44.7c0,-52.15 -2.48,-104.29 -2.48,-156.44 0,-64.56 0,-119.19 0,-171.34l2.48 -14.9zm-32.28 -76.98c0,7.45 -2.48,17.38 -2.48,29.8 0,19.87 0,34.76 -2.48,42.21 0,4.97 0,9.93 0,14.9l0 7.45c0,57.11 0,114.22 0,168.85 0,54.63 0,104.29 2.48,156.44l0 7.45 -9.93 0c-325.29,-4.97 -653.07,-2.48 -973.39,4.97l-34.76 0 0 -335.22 7.45 0c12.42,-2.48 37.25,0 76.98,2.48 2.48,-131.61 7.45,-263.21 9.93,-389.85 4.97,-208.58 4.97,-424.62 -2.48,-638.17 -7.45,0 -14.9,2.48 -22.35,2.48 -7.45,0 -17.38,2.48 -34.76,2.48 -9.93,0 -19.87,0 -24.83,0l-9.93 0 0 -312.88 7.45 -2.48c14.9,0 44.7,0 91.88,4.97 57.11,4.97 136.57,9.93 235.9,9.93 29.8,-4.97 62.08,-7.45 94.36,-12.42 27.31,-2.48 57.11,-7.45 86.91,-12.42l9.93 -2.48 0 337.71 -9.93 0c-17.38,-2.48 -37.25,-4.97 -54.63,-4.97l-9.93 -2.48c-4.97,181.27 -7.45,429.58 -7.45,739.98 2.48,91.88 7.45,186.24 12.42,280.6 64.56,2.48 141.54,2.48 228.45,2.48 -4.97,-52.15 -4.97,-86.91 -4.97,-101.81l0 -7.45 340.19 0 0 7.45zm635.69 -1179.5c-9.93,2.48 -19.87,2.48 -27.31,4.97 -32.28,2.48 -64.56,7.45 -96.84,9.93l-4.97 0c-101.81,0 -183.75,-2.48 -243.35,-7.45 -9.93,-2.48 -19.87,-2.48 -29.8,-2.48l0 173.82c0,0 0,0 0,0l81.94 -9.93 2.48 57.11c9.93,211.07 9.93,422.14 4.97,625.75 -2.48,153.96 -7.45,310.39 -12.42,464.35l-2.48 57.11 -57.11 -4.97c-4.97,-2.48 -12.42,-2.48 -17.38,-2.48l0 173.82c0,0 0,0 0,0 54.63,-7.45 106.78,-9.93 158.92,-9.93 27.31,0 54.63,0 79.46,2.48 54.63,2.48 109.26,7.45 163.89,12.42l0 -183.75c-7.45,2.48 -12.42,2.48 -19.87,2.48l-57.11 7.45 -4.97 -116.71c-4.97,-96.84 -9.93,-191.2 -14.9,-288.05 0,-310.39 4.97,-553.74 9.93,-727.56l2.48 -54.63 57.11 -2.48c7.45,0 17.38,0 27.31,2.48l0 -183.75zm9.93 280.6l86.91 9.93 0 -402.27 -49.66 7.45c-32.28,4.97 -59.6,7.45 -86.91,12.42 -29.8,2.48 -59.6,7.45 -91.88,9.93 -96.84,0 -176.3,-2.48 -230.93,-7.45 -67.04,-7.45 -86.91,-7.45 -96.84,-4.97l-39.73 2.48 0 369.99 86.91 -2.48 0 9.93c7.45,191.2 7.45,379.92 2.48,563.67 -2.48,121.67 -7.45,255.76 -12.42,409.72l0 7.45 -7.45 0c-17.38,0 -24.83,0 -29.8,0l-39.73 4.97 0 367.51 69.53 0c22.35,0 34.76,-2.48 39.73,-2.48 49.66,-4.97 99.33,-9.93 148.99,-9.93 22.35,0 47.18,2.48 72.01,2.48 72.01,4.97 144.02,9.93 218.52,17.38l47.18 4.97 0 -402.27 -49.66 7.45c-7.45,2.48 -14.9,2.48 -22.35,4.97l-9.93 0 0 -12.42c-4.97,-96.84 -9.93,-191.2 -14.9,-285.56 0,-275.63 4.97,-501.6 9.93,-672.93l0 -9.93zm-29.8 970.91l2.48 49.66c22.35,-2.48 47.18,-4.97 69.53,-9.93l9.93 0 0 320.33 -9.93 0c-74.49,-7.45 -148.99,-12.42 -218.52,-17.38 -76.98,-4.97 -151.47,-2.48 -228.45,7.45 -7.45,0 -19.87,0 -34.76,0l-34.76 2.48 0 -300.46 7.45 -2.48c12.42,0 34.76,0 69.53,2.48 4.97,-173.82 9.93,-317.84 12.42,-454.42 4.97,-198.65 4.97,-404.75 -4.97,-610.85 -4.97,0 -9.93,0 -14.9,0 -7.45,2.48 -17.38,2.48 -34.76,2.48 -9.93,0 -19.87,0 -24.83,0l-9.93 0 0 -300.46 7.45 0c14.9,-2.48 44.7,0 91.88,4.97 57.11,4.97 136.57,7.45 235.9,7.45 29.8,-2.48 62.08,-7.45 94.36,-9.93 27.31,-4.97 54.63,-7.45 86.91,-12.42l9.93 -2.48 0 322.81 -9.93 0c-24.83,-2.48 -49.66,-4.97 -76.98,-7.45 -4.97,171.34 -9.93,414.69 -9.93,720.11 4.97,96.84 9.93,191.2 14.9,288.05zm1353.32 -414.69c-141.54,0 -248.31,-2.48 -325.29,-9.93 -27.31,0 -47.18,-2.48 -62.08,-2.48l0 216.03c9.93,-2.48 17.38,-2.48 22.35,-2.48 49.66,-4.97 99.33,-7.45 148.99,-9.93l52.15 0 2.48 69.53c0,14.9 0,27.31 2.48,32.28 2.48,12.42 2.48,27.31 2.48,39.73l4.97 47.18 -22.35 17.38c-54.63,42.21 -111.74,62.08 -139.06,69.53 -22.35,4.97 -89.39,22.35 -171.34,2.48 -4.97,0 -84.43,-19.87 -153.96,-81.94 -94.36,-81.94 -161.4,-260.73 -163.89,-449.45 -2.48,-166.37 44.7,-305.43 136.57,-389.85 59.6,-54.63 191.2,-134.09 315.36,-134.09 67.04,0 124.16,14.9 181.27,44.7l32.28 17.38 -4.97 52.15c-2.48,9.93 -2.48,19.87 -2.48,32.28 -2.48,2.48 -2.48,4.97 -2.48,7.45l230.93 0c-2.48,-9.93 -2.48,-22.35 -4.97,-39.73 -4.97,-59.6 -9.93,-144.02 -9.93,-248.31 4.97,-37.25 9.93,-69.53 12.42,-104.29 2.48,-12.42 4.97,-24.83 7.45,-37.25l-240.87 0 4.97 62.08 -72.01 -17.38c-91.88,-22.35 -186.24,-24.83 -275.63,-7.45 -39.73,7.45 -163.89,32.28 -280.6,126.64 -9.93,9.93 -250.8,218.52 -243.35,667.97l0 24.83c4.97,114.22 17.38,422.14 235.9,605.89 47.18,39.73 176.3,129.12 350.12,131.61 67.04,0 129.12,-9.93 191.2,-32.28l79.46 -29.8 -4.97 62.08 245.83 0c-2.48,-9.93 -2.48,-22.35 -4.97,-34.76 -4.97,-34.76 -9.93,-69.53 -12.42,-101.81 0,-116.71 2.48,-206.1 9.93,-270.66 2.48,-29.8 4.97,-52.15 4.97,-69.53l2.48 -54.63 99.33 7.45c2.48,0 4.97,0 4.97,0l0 -228.45c-19.87,2.48 -39.73,4.97 -57.11,7.45 -42.21,4.97 -84.43,9.93 -126.64,12.42zm233.42 -121.67c-44.7,4.97 -81.94,9.93 -116.71,12.42 -24.83,2.48 -49.66,4.97 -72.01,7.45l-49.66 4.97c0,0 -2.48,0 -2.48,0 -131.61,0 -235.9,-2.48 -310.39,-9.93 -86.91,-7.45 -114.22,-4.97 -126.64,-4.97l-39.73 4.97 0 407.24 76.98 0c27.31,0 42.21,-2.48 52.15,-2.48 29.8,-2.48 59.6,-4.97 89.39,-7.45l7.45 0 2.48 7.45c0,4.97 0,7.45 0,9.93 2.48,7.45 2.48,14.9 2.48,22.35l0 4.97 -4.97 2.48c-34.76,22.35 -67.04,32.28 -79.46,34.76 -17.38,4.97 -64.56,17.38 -124.16,2.48 0,0 -59.6,-12.42 -114.22,-59.6 -72.01,-64.56 -126.64,-223.48 -129.12,-377.44 -2.48,-139.06 34.76,-253.28 106.78,-317.84 44.7,-42.21 153.96,-109.26 253.28,-109.26 32.28,0 67.04,7.45 99.33,19.87l4.97 2.48 0 4.97c0,2.48 0,4.97 0,7.45 -2.48,9.93 -2.48,24.83 -2.48,42.21l-2.48 79.46 382.4 0 42.21 -7.45 2.48 -39.73c2.48,-12.42 2.48,-34.76 -4.97,-101.81 -4.97,-54.63 -9.93,-134.09 -9.93,-230.93 4.97,-32.28 7.45,-64.56 12.42,-96.84 4.97,-29.8 9.93,-57.11 14.9,-96.84l9.93 -52.15 -414.69 0 -47.18 4.97 2.48 29.8 -12.42 -2.48c-34.76,-4.97 -69.53,-7.45 -104.29,-7.45 -47.18,0 -94.36,4.97 -139.06,14.9 -126.64,22.35 -233.42,72.01 -322.81,146.51 -12.42,9.93 -288.05,243.35 -280.6,749.91l0 19.87c4.97,126.64 19.87,466.83 270.66,677.9 54.63,47.18 206.1,151.47 412.2,153.96 42.21,2.48 89.39,-2.48 148.99,-14.9l9.93 -2.48 0 17.38 469.31 0 -9.93 -49.66c-7.45,-34.76 -12.42,-67.04 -14.9,-94.36 -2.48,-19.87 -4.97,-39.73 -7.45,-57.11l-4.97 -37.25c0,-109.26 2.48,-193.69 9.93,-253.28 0,-9.93 0,-17.38 2.48,-24.83l0 -7.45 7.45 0c19.87,2.48 37.25,2.48 54.63,4.97l49.66 2.48 0 -442 -49.66 7.45zm12.42 397.3l-7.45 0c-22.35,-2.48 -42.21,-4.97 -62.08,-4.97 -12.42,0 -24.83,-2.48 -37.25,-2.48 -2.48,17.38 -2.48,37.25 -4.97,64.56 -7.45,62.08 -9.93,146.51 -9.93,255.76 2.48,32.28 7.45,67.04 12.42,101.81 2.48,29.8 7.45,59.6 14.9,94.36l2.48 9.93 -389.85 0 2.48 -9.93c0,-4.97 0,-12.42 2.48,-17.38 0,-2.48 0,-2.48 0,-4.97 -64.56,22.35 -129.12,32.28 -193.69,32.28 -2.48,0 -4.97,0 -7.45,0 -196.17,-2.48 -337.71,-101.81 -387.37,-146.51 -240.87,-201.13 -255.76,-528.91 -258.25,-650.58 -2.48,-9.93 -2.48,-17.38 -2.48,-19.87l0 -4.97c-7.45,-484.21 265.7,-715.15 268.18,-717.63 84.43,-69.53 188.72,-116.71 305.43,-139.06 96.84,-19.87 193.69,-17.38 290.53,4.97 0,-2.48 0,-4.97 0,-7.45 0,-4.97 -2.48,-12.42 -2.48,-19.87l-2.48 -17.38 382.4 0 -2.48 17.38c-7.45,34.76 -9.93,62.08 -14.9,91.88 -4.97,32.28 -7.45,64.56 -12.42,96.84 0,99.33 2.48,181.27 9.93,238.38 4.97,49.66 7.45,79.46 4.97,96.84l-2.48 12.42 -352.61 0 0 -42.21c0,-14.9 0,-27.31 2.48,-37.25 0,-9.93 2.48,-17.38 2.48,-27.31 0,-4.97 0,-7.45 0,-12.42 -44.7,-22.35 -91.88,-34.76 -141.54,-37.25l-4.97 0c-104.29,0 -223.48,74.49 -273.15,119.19 -76.98,74.49 -119.19,196.17 -116.71,345.16 2.48,166.37 59.6,332.74 141.54,404.75 59.6,49.66 126.64,67.04 129.12,67.04 67.04,17.38 121.67,2.48 141.54,-2.48 22.35,-7.45 67.04,-22.35 111.74,-57.11 0,-4.97 -2.48,-9.93 -2.48,-14.9 0,-9.93 0,-22.35 -2.48,-32.28 0,-9.93 -2.48,-22.35 -2.48,-39.73l0 -9.93c-47.18,2.48 -91.88,4.97 -136.57,9.93 -9.93,0 -27.31,2.48 -47.18,2.48 -14.9,0 -24.83,0 -32.28,0l-9.93 0 0 -340.19 7.45 -2.48c19.87,0 59.6,2.48 121.67,7.45 74.49,4.97 181.27,7.45 315.36,7.45 39.73,-2.48 81.94,-7.45 124.16,-12.42 37.25,-2.48 74.49,-7.45 116.71,-12.42l9.93 -2.48 0 365.02zm1348.35 250.8l-12.42 -42.21c-32.28,-111.74 -64.56,-225.97 -91.88,-337.71 -24.83,-94.36 -42.21,-163.89 -57.11,-235.9 -14.9,-64.56 -32.28,-131.61 -54.63,-223.48 -24.83,-96.84 -49.66,-186.24 -72.01,-268.18l-19.87 -72.01 84.43 4.97 0 -191.2c-22.35,2.48 -42.21,4.97 -62.08,7.45 -42.21,2.48 -84.43,7.45 -124.16,9.93 -139.06,0 -248.31,-2.48 -325.29,-7.45 -27.31,-2.48 -47.18,-4.97 -62.08,-4.97l0 181.27c9.93,0 17.38,0 22.35,-2.48l79.46 -4.97 -22.35 74.49c-49.66,156.44 -94.36,310.39 -131.61,461.87 -52.15,196.17 -91.88,384.89 -114.22,486.7 -9.93,44.7 -19.87,86.91 -27.31,124.16l-9.93 44.7 -54.63 -4.97c-12.42,0 -22.35,-2.48 -32.28,-2.48l0 178.79c0,0 0,0 2.48,0 52.15,-7.45 104.29,-9.93 158.92,-9.93 24.83,0 52.15,0 76.98,2.48 54.63,2.48 109.26,7.45 163.89,12.42l0 -188.72 -62.08 9.93 12.42 -121.67c4.97,-44.7 9.93,-89.39 12.42,-131.61l4.97 -49.66 49.66 0c52.15,2.48 104.29,4.97 158.92,4.97 52.15,0 106.78,2.48 161.4,4.97l42.21 0 7.45 42.21c7.45,52.15 14.9,104.29 22.35,158.92l9.93 94.36 -64.56 -4.97c-7.45,0 -14.9,-2.48 -19.87,-2.48l0 178.79c0,0 0,0 0,0 81.94,-9.93 161.4,-12.42 238.38,-7.45 54.63,2.48 109.26,7.45 163.89,12.42l0 -188.72c-2.48,2.48 -4.97,2.48 -4.97,2.48l-47.18 4.97zm-387.37 -459.38c-37.25,2.48 -74.49,2.48 -114.22,2.48 -4.97,0 -12.42,0 -17.38,0 -39.73,0 -79.46,0 -114.22,-2.48l-64.56 -2.48 14.9 -59.6c12.42,-62.08 29.8,-124.16 47.18,-188.72 22.35,-84.43 49.66,-168.85 79.46,-250.8l54.63 -158.92 44.7 163.89c22.35,74.49 42.21,151.47 62.08,225.97 19.87,69.53 37.25,136.57 54.63,203.62l17.38 64.56 -64.56 2.48zm-121.67 -454.42c-24.83,72.01 -47.18,146.51 -67.04,218.52 -14.9,59.6 -29.8,116.71 -44.7,176.3 39.73,0 79.46,2.48 119.19,2.48 32.28,-2.48 67.04,-2.48 99.33,-4.97 -17.38,-62.08 -34.76,-126.64 -52.15,-191.2 -17.38,-67.04 -34.76,-134.09 -54.63,-201.13zm62.08 360.06l-12.42 0c-12.42,0 -27.31,0 -42.21,0 -22.35,0 -42.21,0 -64.56,0l-9.93 0 2.48 -9.93c9.93,-39.73 19.87,-81.94 32.28,-121.67 7.45,-24.83 14.9,-49.66 22.35,-76.98l7.45 -29.8 24.83 86.91c12.42,47.18 24.83,94.36 37.25,141.54l2.48 9.93zm546.29 442c-7.45,2.48 -14.9,2.48 -19.87,4.97l-9.93 0 0 -7.45c-29.8,-94.36 -54.63,-193.69 -79.46,-288.05 -24.83,-96.84 -39.73,-163.89 -57.11,-233.42l-2.48 -4.97c-14.9,-64.56 -29.8,-131.61 -52.15,-223.48 -17.38,-64.56 -34.76,-131.61 -52.15,-196.17l-2.48 -12.42 49.66 2.48 0 -404.75 -49.66 7.45c-44.7,4.97 -81.94,7.45 -116.71,12.42 -42.21,2.48 -84.43,7.45 -121.67,9.93 0,0 0,0 -2.48,0 -131.61,0 -238.38,-2.48 -310.39,-7.45 -81.94,-7.45 -111.74,-4.97 -126.64,-4.97l-39.73 2.48 0 374.96 64.56 -2.48 -2.48 12.42c-42.21,134.09 -79.46,265.7 -111.74,394.82 -52.15,198.65 -94.36,387.37 -116.71,491.66 -4.97,27.31 -9.93,52.15 -17.38,76.98l0 7.45 -7.45 0c-37.25,-2.48 -52.15,-2.48 -59.6,-2.48l-39.73 4.97 0 372.47 69.53 0c22.35,-2.48 34.76,-2.48 39.73,-2.48 49.66,-7.45 99.33,-9.93 148.99,-9.93 22.35,0 47.18,0 72.01,2.48 74.49,4.97 146.51,9.93 218.52,17.38l47.18 4.97 0 -407.24 -49.66 7.45 2.48 -9.93c2.48,-24.83 4.97,-47.18 4.97,-72.01l2.48 -7.45 7.45 0c37.25,0 72.01,2.48 109.26,2.48 37.25,0 76.98,2.48 116.71,2.48l7.45 0 0 7.45c4.97,24.83 7.45,52.15 9.93,76.98l2.48 9.93 -9.93 0c-12.42,0 -17.38,0 -22.35,0l-39.73 4.97 0 372.47 69.53 0c22.35,-2.48 32.28,-2.48 39.73,-2.48 74.49,-9.93 148.99,-12.42 221,-7.45 74.49,4.97 146.51,9.93 218.52,17.38l47.18 4.97 0 -407.24 -49.66 7.45zm14.9 360.06l-9.93 0c-72.01,-7.45 -146.51,-12.42 -218.52,-17.38 -76.98,-4.97 -151.47,-2.48 -228.45,7.45 -7.45,0 -17.38,0 -34.76,0 -9.93,2.48 -19.87,2.48 -24.83,2.48l-9.93 0 0 -305.43 7.45 -2.48c12.42,0 34.76,0 69.53,4.97l-2.48 -19.87c-4.97,-49.66 -12.42,-99.33 -19.87,-148.99 -52.15,0 -104.29,-2.48 -153.96,-2.48 -49.66,-2.48 -99.33,-2.48 -148.99,-4.97 -4.97,42.21 -7.45,81.94 -12.42,124.16 0,9.93 -2.48,19.87 -2.48,29.8l-2.48 14.9c14.9,-2.48 29.8,-4.97 44.7,-7.45l9.93 0 0 325.29 -9.93 0c-72.01,-7.45 -146.51,-12.42 -218.52,-17.38 -74.49,-4.97 -151.47,-2.48 -228.45,7.45 -7.45,0 -17.38,0 -34.76,0 -9.93,0 -19.87,2.48 -24.83,2.48l-9.93 0 0 -305.43 7.45 -2.48c14.9,0 44.7,2.48 91.88,4.97 7.45,-34.76 17.38,-74.49 24.83,-114.22 22.35,-104.29 64.56,-293.01 116.71,-489.18 37.25,-148.99 79.46,-300.46 129.12,-451.93 -9.93,0 -22.35,0 -37.25,0l-42.21 0 0 -305.43 7.45 0c19.87,-2.48 59.6,0 121.67,4.97 74.49,4.97 181.27,7.45 315.36,7.45 39.73,-2.48 81.94,-7.45 124.16,-9.93 37.25,-2.48 74.49,-7.45 116.71,-12.42l9.93 -2.48 0 327.78 -7.45 0c-14.9,-2.48 -29.8,-2.48 -44.7,-4.97l-7.45 0c22.35,86.91 44.7,171.34 67.04,258.25 22.35,91.88 39.73,158.92 54.63,225.97 17.38,72.01 32.28,139.06 57.11,233.42 27.31,109.26 57.11,218.52 89.39,327.78 19.87,-2.48 39.73,-4.97 59.6,-9.93l9.93 0 0 325.29zm1991.48 -1596.66l-4.97 0c-104.29,0 -183.75,-2.48 -243.35,-7.45 -9.93,-2.48 -22.35,-2.48 -29.8,-2.48l0 181.27c0,0 0,0 0,0l67.04 -4.97 9.93 101.81c2.48,148.99 2.48,297.98 -2.48,439.52 -2.48,141.54 -7.45,285.56 -17.38,429.58l0 14.9 -9.93 12.42c-22.35,32.28 -67.04,76.98 -134.09,104.29 -104.29,39.73 -178.79,17.38 -223.48,-7.45 -32.28,-19.87 -62.08,-47.18 -81.94,-81.94l-4.97 -12.42 0 -12.42c-12.42,-203.62 -17.38,-407.24 -17.38,-610.85 0,-106.78 0,-213.55 2.48,-315.36l2.48 -57.11 69.53 4.97c0,0 2.48,0 4.97,0l0 -191.2c-7.45,2.48 -17.38,2.48 -27.31,4.97 -32.28,2.48 -64.56,7.45 -94.36,9.93 -111.74,0 -191.2,-2.48 -248.31,-7.45 -12.42,-2.48 -22.35,-2.48 -32.28,-2.48l0 181.27c0,0 0,0 2.48,0l72.01 -7.45 12.42 57.11c0,57.11 2.48,119.19 4.97,183.75 2.48,148.99 4.97,260.73 7.45,360.06 2.48,124.16 4.97,285.56 4.97,471.8 14.9,52.15 42.21,101.81 74.49,144.02 24.83,29.8 62.08,76.98 129.12,111.74 114.22,54.63 228.45,32.28 293.01,19.87 44.7,-9.93 89.39,-24.83 134.09,-44.7l76.98 -37.25 -2.48 96.84c37.25,-2.48 74.49,-2.48 114.22,-2.48 34.76,0 72.01,2.48 109.26,2.48 19.87,2.48 37.25,2.48 54.63,2.48l0 -193.69c0,0 -2.48,0 -2.48,0l-59.6 4.97 2.48 -148.99c2.48,-96.84 4.97,-156.44 7.45,-213.55 2.48,-62.08 4.97,-121.67 4.97,-228.45 2.48,-104.29 2.48,-163.89 2.48,-216.03 0,-59.6 0,-104.29 2.48,-186.24 2.48,-42.21 2.48,-84.43 4.97,-124.16l2.48 -54.63 54.63 4.97c12.42,2.48 22.35,2.48 32.28,4.97l0 -193.69c-9.93,2.48 -17.38,2.48 -27.31,4.97 -32.28,2.48 -64.56,7.45 -96.84,9.93zm171.34 -119.19c-32.28,4.97 -59.6,7.45 -86.91,12.42 -29.8,2.48 -62.08,7.45 -91.88,9.93 -99.33,0 -176.3,-2.48 -230.93,-7.45 -64.56,-7.45 -84.43,-7.45 -96.84,-4.97l-39.73 4.97 0 377.44 76.98 -2.48 0 9.93c2.48,144.02 0,288.05 -2.48,424.62 -2.48,136.57 -7.45,273.15 -14.9,409.72l0 2.48 -2.48 2.48c-22.35,24.83 -49.66,44.7 -79.46,57.11 -72.01,27.31 -116.71,14.9 -141.54,0 -17.38,-9.93 -29.8,-22.35 -39.73,-37.25l-2.48 -2.48 0 -2.48c-9.93,-196.17 -14.9,-394.82 -14.9,-590.99 0,-81.94 0,-166.37 2.48,-258.25l0 -9.93 76.98 9.93 0 -414.69 -49.66 9.93c-32.28,4.97 -59.6,7.45 -86.91,12.42l-86.91 9.93c-2.48,0 -2.48,0 -4.97,0 -99.33,0 -176.3,-2.48 -230.93,-7.45 -64.56,-7.45 -84.43,-4.97 -96.84,-4.97l-39.73 4.97 0 377.44 86.91 -2.48 0 7.45c2.48,42.21 2.48,84.43 2.48,129.12 4.97,148.99 7.45,260.73 9.93,357.57 2.48,158.92 2.48,320.33 4.97,481.73l2.48 12.42c17.38,64.56 49.66,126.64 91.88,181.27 27.31,34.76 76.98,94.36 163.89,139.06 141.54,69.53 283.08,42.21 352.61,27.31 27.31,-4.97 54.63,-12.42 81.94,-22.35l12.42 -2.48 -2.48 49.66 49.66 -4.97c54.63,-2.48 109.26,-4.97 163.89,-4.97 34.76,0 69.53,2.48 104.29,2.48 37.25,2.48 72.01,4.97 109.26,7.45l47.18 4.97 0 -394.82 -37.25 -4.97c-4.97,0 -7.45,0 -12.42,0l-9.93 -2.48 0 -39.73c2.48,-94.36 4.97,-153.96 7.45,-208.58l0 -4.97c2.48,-64.56 4.97,-124.16 4.97,-228.45 2.48,-104.29 2.48,-168.85 2.48,-218.52 0,-57.11 0,-101.81 2.48,-181.27 0,-24.83 2.48,-47.18 2.48,-67.04l0 -9.93 9.93 0c12.42,2.48 22.35,2.48 34.76,4.97l47.18 4.97 0 -414.69 -49.66 9.93zm14.9 365.02l-9.93 -2.48c-27.31,-2.48 -52.15,-4.97 -79.46,-7.45 -2.48,37.25 -4.97,74.49 -4.97,114.22 -2.48,79.46 -2.48,126.64 -2.48,183.75 0,49.66 0,114.22 -2.48,218.52 -2.48,104.29 -2.48,163.89 -4.97,228.45 -2.48,57.11 -4.97,116.71 -7.45,213.55 0,27.31 0,52.15 0,79.46 24.83,-2.48 42.21,-2.48 52.15,-2.48l7.45 0 0 325.29 -9.93 0c-34.76,-2.48 -72.01,-4.97 -109.26,-7.45 -89.39,-4.97 -183.75,-2.48 -273.15,2.48l-9.93 2.48 0 -67.04c-42.21,19.87 -89.39,34.76 -136.57,44.7 -64.56,12.42 -198.65,42.21 -330.26,-24.83 -79.46,-39.73 -124.16,-96.84 -148.99,-129.12 -42.21,-49.66 -72.01,-106.78 -89.39,-168.85l0 -2.48c0,-161.4 -2.48,-322.81 -4.97,-481.73 -2.48,-86.91 -4.97,-206.1 -7.45,-357.57 -2.48,-62.08 -4.97,-121.67 -4.97,-176.3 -4.97,0 -9.93,2.48 -17.38,2.48 -7.45,0 -17.38,2.48 -34.76,2.48 -9.93,0 -19.87,0 -24.83,0l-9.93 0 0 -310.39 7.45 0c14.9,0 44.7,0 91.88,4.97 57.11,4.97 136.57,7.45 235.9,7.45 29.8,-2.48 62.08,-4.97 94.36,-9.93 27.31,-2.48 57.11,-7.45 86.91,-12.42l9.93 -2.48 0 332.74 -9.93 -2.48c-19.87,0 -42.21,-2.48 -64.56,-4.97l-2.48 0c-2.48,106.78 -4.97,208.58 -2.48,305.43 0,201.13 4.97,404.75 14.9,605.89 14.9,24.83 34.76,44.7 59.6,57.11 32.28,19.87 86.91,34.76 171.34,2.48 49.66,-17.38 84.43,-52.15 104.29,-79.46 7.45,-139.06 12.42,-283.08 14.9,-422.14 4.97,-144.02 4.97,-290.53 2.48,-439.52l0 -34.76c-2.48,0 -4.97,0 -7.45,0 -7.45,0 -17.38,2.48 -34.76,2.48 -9.93,0 -19.87,0 -24.83,0l-9.93 0 0 -310.39 7.45 0c14.9,0 42.21,0 91.88,4.97 54.63,4.97 134.09,7.45 235.9,7.45 29.8,-2.48 62.08,-4.97 94.36,-9.93 27.31,-2.48 57.11,-7.45 86.91,-12.42l9.93 -2.48 0 332.74z"/>
    <path class="fil1" d="M13151.43 2765.3l-4.97 2.48 -42.21 27.31 -32.28 -39.73c-27.31,-39.73 -47.18,-72.01 -59.6,-91.88 -34.76,-54.63 -69.53,-109.26 -99.33,-166.37l-22.35 -39.73 37.25 -27.31c9.93,-9.93 22.35,-19.87 34.76,-29.8 7.45,-7.45 14.9,-14.9 22.35,-22.35 54.63,-76.98 91.88,-166.37 109.26,-258.25 29.8,-173.82 -22.35,-315.36 -54.63,-382.4 -34.76,-49.66 -81.94,-99.33 -141.54,-136.57 -34.76,-22.35 -76.98,-42.21 -119.19,-57.11 -186.24,0 -374.96,0 -563.67,0l0 188.72c0,0 2.48,0 2.48,0 12.42,-2.48 22.35,-2.48 34.76,-4.97l57.11 -4.97 2.48 54.63c4.97,134.09 7.45,293.01 7.45,340.19 2.48,141.54 2.48,283.08 0,424.62 0,99.33 -2.48,211.07 -7.45,330.26l-2.48 54.63 -64.56 -4.97c-12.42,0 -22.35,-2.48 -29.8,-2.48l0 171.34c0,0 0,0 0,0 54.63,-4.97 106.78,-9.93 158.92,-9.93 27.31,0 54.63,2.48 79.46,2.48 54.63,4.97 109.26,7.45 163.89,12.42l0 -178.79c-4.97,0 -9.93,0 -14.9,0l-57.11 7.45 -2.48 -116.71c-2.48,-69.53 -2.48,-139.06 -2.48,-206.1l0 -54.63 54.63 2.48c14.9,0 32.28,0 52.15,-2.48l29.8 -2.48 17.38 27.31c22.35,32.28 44.7,64.56 67.04,99.33 37.25,62.08 72.01,121.67 104.29,178.79l29.8 52.15 -54.63 22.35c-7.45,2.48 -12.42,4.97 -14.9,7.45l86.91 151.47c0,0 2.48,0 2.48,-2.48 64.56,-42.21 134.09,-79.46 206.1,-111.74 49.66,-19.87 96.84,-39.73 146.51,-59.6l-91.88 -161.4c-7.45,7.45 -17.38,12.42 -24.83,17.38zm-367.51 -499.11c-74.49,49.66 -151.47,59.6 -201.13,59.6l-57.11 0 2.48 -54.63c2.48,-76.98 4.97,-153.96 7.45,-230.93 0,-101.81 0,-201.13 -2.48,-297.98l-2.48 -49.66 49.66 -4.97c44.7,-2.48 129.12,-2.48 208.58,49.66 109.26,69.53 126.64,183.75 131.61,223.48 12.42,96.84 -17.38,168.85 -44.7,213.55 -22.35,34.76 -54.63,67.04 -91.88,91.88zm-29.8 -479.25c-57.11,-37.25 -121.67,-39.73 -158.92,-37.25 2.48,94.36 2.48,193.69 0,290.53 0,74.49 -2.48,148.99 -4.97,223.48 37.25,0 99.33,-9.93 158.92,-49.66 29.8,-19.87 57.11,-44.7 74.49,-74.49 22.35,-34.76 47.18,-91.88 34.76,-171.34 -4.97,-29.8 -17.38,-124.16 -104.29,-181.27zm39.73 332.74c-9.93,17.38 -29.8,42.21 -64.56,64.56 -27.31,19.87 -57.11,32.28 -91.88,37.25l-9.93 2.48 0 -9.93c2.48,-54.63 2.48,-111.74 4.97,-173.82 0,-81.94 0,-163.89 -2.48,-245.83l0 -9.93 9.93 0c37.25,4.97 69.53,14.9 96.84,32.28 72.01,47.18 81.94,126.64 86.91,156.44 9.93,69.53 -9.93,119.19 -29.8,146.51zm412.2 486.7l-39.73 29.8c-9.93,7.45 -19.87,14.9 -32.28,22.35l-7.45 4.97 -4.97 -7.45c-9.93,-17.38 -19.87,-32.28 -27.31,-44.7 -27.31,-39.73 -52.15,-81.94 -74.49,-124.16l-4.97 -4.97 7.45 -4.97c2.48,-2.48 4.97,-4.97 7.45,-7.45 7.45,-7.45 17.38,-17.38 29.8,-32.28 67.04,-91.88 111.74,-193.69 131.61,-300.46 32.28,-191.2 -19.87,-350.12 -69.53,-449.45 -42.21,-67.04 -101.81,-121.67 -168.85,-166.37 -47.18,-32.28 -96.84,-54.63 -151.47,-72.01l-7.45 -2.48 -4.97 0c-173.82,0 -362.54,0 -595.96,0l-74.49 0 0 384.89 69.53 0c7.45,0 14.9,-2.48 19.87,-2.48l7.45 0 2.48 9.93c2.48,79.46 4.97,173.82 4.97,280.6 2.48,139.06 2.48,280.6 0,419.65 0,91.88 -2.48,183.75 -7.45,273.15l0 9.93 -7.45 0c-29.8,-2.48 -42.21,-2.48 -49.66,0l-39.73 2.48 0 367.51 69.53 -2.48c17.38,0 32.28,0 39.73,-2.48 74.49,-7.45 148.99,-9.93 221,-4.97 72.01,2.48 146.51,9.93 218.52,14.9l47.18 4.97 0 -268.18 161.4 278.11 59.6 -29.8c19.87,-9.93 29.8,-17.38 34.76,-19.87 59.6,-39.73 124.16,-74.49 188.72,-104.29 67.04,-27.31 134.09,-54.63 201.13,-81.94l49.66 -17.38 -203.62 -352.61zm-566.16 208.58l0 -9.93c-2.48,-39.73 -2.48,-79.46 -2.48,-116.71l0 -29.8 17.38 24.83c7.45,12.42 14.9,27.31 24.83,39.73 14.9,22.35 27.31,44.7 39.73,67.04l7.45 12.42 -86.91 12.42zm707.7 129.12c-69.53,27.31 -136.57,54.63 -201.13,81.94 -69.53,29.8 -134.09,64.56 -196.17,106.78 -7.45,4.97 -14.9,9.93 -32.28,17.38 -7.45,4.97 -14.9,9.93 -19.87,12.42l-7.45 2.48 -151.47 -260.73 7.45 -4.97c9.93,-4.97 29.8,-14.9 62.08,-27.31 -32.28,-57.11 -64.56,-111.74 -99.33,-166.37 -17.38,-29.8 -37.25,-59.6 -62.08,-96.84 -14.9,2.48 -29.8,2.48 -44.7,2.48 0,64.56 0,131.61 2.48,196.17 0,12.42 0,24.83 0,37.25l0 9.93c22.35,-2.48 44.7,-4.97 64.56,-7.45l9.93 -2.48 0 320.33 -9.93 -2.48c-72.01,-7.45 -146.51,-12.42 -218.52,-17.38 -76.98,-4.97 -151.47,-2.48 -228.45,7.45 -7.45,0 -17.38,2.48 -34.76,2.48 -9.93,0 -19.87,0 -24.83,0l-9.93 0 0 -297.98 7.45 0c14.9,-2.48 44.7,0 89.39,2.48 4.97,-106.78 7.45,-213.55 9.93,-317.84 0,-141.54 0,-283.08 0,-422.14 -2.48,-131.61 -4.97,-243.35 -9.93,-330.26 -7.45,2.48 -17.38,2.48 -24.83,4.97 -7.45,0 -22.35,0 -37.25,0 -9.93,0 -19.87,0 -24.83,2.48l-9.93 0 0 -315.36 39.73 0c198.65,2.48 397.3,0 595.96,0l2.48 0c49.66,17.38 96.84,39.73 141.54,67.04 64.56,42.21 119.19,96.84 161.4,158.92 37.25,76.98 94.36,233.42 62.08,422.14 -19.87,104.29 -62.08,201.13 -124.16,288.05 -9.93,9.93 -17.38,17.38 -27.31,27.31 -9.93,9.93 -22.35,19.87 -34.76,29.8 29.8,52.15 62.08,104.29 94.36,156.44 9.93,17.38 27.31,44.7 54.63,81.94 19.87,-14.9 42.21,-29.8 69.53,-47.18l7.45 -7.45 4.97 9.93 156.44 270.66 -9.93 4.97zm1224.19 -1385.6l-4.97 0c-104.29,0 -183.75,-2.48 -243.35,-7.45 -9.93,-2.48 -22.35,-2.48 -29.8,-2.48l0 181.27c0,0 0,0 0,0l67.04 -4.97 9.93 101.81c2.48,148.99 2.48,297.98 -2.48,439.52 -2.48,141.54 -7.45,285.56 -17.38,429.58l0 14.9 -9.93 12.42c-22.35,32.28 -67.04,76.98 -134.09,104.29 -104.29,39.73 -178.79,17.38 -223.48,-7.45 -32.28,-19.87 -62.08,-47.18 -81.94,-81.94l-4.97 -12.42 0 -12.42c-12.42,-203.62 -17.38,-407.24 -17.38,-610.85 0,-106.78 0,-213.55 2.48,-315.36l2.48 -57.11 69.53 4.97c0,0 2.48,0 4.97,0l0 -191.2c-7.45,2.48 -17.38,2.48 -27.31,4.97 -32.28,2.48 -64.56,7.45 -94.36,9.93 -111.74,0 -191.2,-2.48 -248.31,-7.45 -12.42,-2.48 -22.35,-2.48 -32.28,-2.48l0 181.27c0,0 0,0 2.48,0l72.01 -7.45 12.42 57.11c0,57.11 2.48,119.19 4.97,183.75 2.48,148.99 4.97,260.73 7.45,360.06 2.48,124.16 4.97,285.56 4.97,471.8 14.9,52.15 42.21,101.81 74.49,144.02 24.83,29.8 62.08,76.98 129.12,111.74 114.22,54.63 228.45,32.28 293.01,19.87 44.7,-9.93 89.39,-24.83 134.09,-44.7l76.98 -37.25 -2.48 96.84c37.25,-2.48 74.49,-2.48 114.22,-2.48 34.76,0 72.01,2.48 109.26,2.48 19.87,2.48 37.25,2.48 54.63,2.48l0 -193.69c0,0 -2.48,0 -2.48,0l-59.6 4.97 2.48 -148.99c2.48,-96.84 4.97,-156.44 7.45,-213.55 2.48,-62.08 4.97,-121.67 4.97,-228.45 2.48,-104.29 2.48,-163.89 2.48,-216.03 0,-59.6 0,-104.29 2.48,-186.24 2.48,-42.21 2.48,-84.43 4.97,-124.16l2.48 -54.63 54.63 4.97c12.42,2.48 22.35,2.48 32.28,4.97l0 -193.69c-9.93,2.48 -17.38,2.48 -27.31,4.97 -32.28,2.48 -64.56,7.45 -96.84,9.93zm171.34 -119.19c-32.28,4.97 -59.6,7.45 -86.91,12.42 -29.8,2.48 -62.08,7.45 -91.88,9.93 -99.33,0 -176.3,-2.48 -230.93,-7.45 -64.56,-7.45 -84.43,-7.45 -96.84,-4.97l-39.73 4.97 0 377.44 76.98 -2.48 0 9.93c2.48,144.02 0,288.05 -2.48,424.62 -2.48,136.57 -7.45,273.15 -14.9,409.72l0 2.48 -2.48 2.48c-22.35,24.83 -49.66,44.7 -79.46,57.11 -72.01,27.31 -116.71,14.9 -141.54,0 -17.38,-9.93 -29.8,-22.35 -39.73,-37.25l-2.48 -2.48 0 -2.48c-9.93,-196.17 -14.9,-394.82 -14.9,-590.99 0,-81.94 0,-166.37 2.48,-258.25l0 -9.93 76.98 9.93 0 -414.69 -49.66 9.93c-32.28,4.97 -59.6,7.45 -86.91,12.42l-86.91 9.93c-2.48,0 -2.48,0 -4.97,0 -99.33,0 -176.3,-2.48 -230.93,-7.45 -64.56,-7.45 -84.43,-4.97 -96.84,-4.97l-39.73 4.97 0 377.44 86.91 -2.48 0 7.45c2.48,42.21 2.48,84.43 2.48,129.12 4.97,148.99 7.45,260.73 9.93,357.57 2.48,158.92 2.48,320.33 4.97,481.73l2.48 12.42c17.38,64.56 49.66,126.64 91.88,181.27 27.31,34.76 76.98,94.36 163.89,139.06 141.54,69.53 283.08,42.21 352.61,27.31 27.31,-4.97 54.63,-12.42 81.94,-22.35l12.42 -2.48 -2.48 49.66 49.66 -4.97c54.63,-2.48 109.26,-4.97 163.89,-4.97 34.76,0 69.53,2.48 104.29,2.48 37.25,2.48 72.01,4.97 109.26,7.45l47.18 4.97 0 -394.82 -37.25 -4.97c-4.97,0 -7.45,0 -12.42,0l-9.93 -2.48 0 -39.73c2.48,-94.36 4.97,-153.96 7.45,-208.58l0 -4.97c2.48,-64.56 4.97,-124.16 4.97,-228.45 2.48,-104.29 2.48,-168.85 2.48,-218.52 0,-57.11 0,-101.81 2.48,-181.27 0,-24.83 2.48,-47.18 2.48,-67.04l0 -9.93 9.93 0c12.42,2.48 22.35,2.48 34.76,4.97l47.18 4.97 0 -414.69 -49.66 9.93zm14.9 365.02l-9.93 -2.48c-27.31,-2.48 -52.15,-4.97 -79.46,-7.45 -2.48,37.25 -4.97,74.49 -4.97,114.22 -2.48,79.46 -2.48,126.64 -2.48,183.75 0,49.66 0,114.22 -2.48,218.52 -2.48,104.29 -2.48,163.89 -4.97,228.45 -2.48,57.11 -4.97,116.71 -7.45,213.55 0,27.31 0,52.15 0,79.46 24.83,-2.48 42.21,-2.48 52.15,-2.48l7.45 0 0 325.29 -9.93 0c-34.76,-2.48 -72.01,-4.97 -109.26,-7.45 -89.39,-4.97 -183.75,-2.48 -273.15,2.48l-9.93 2.48 0 -67.04c-42.21,19.87 -89.39,34.76 -136.57,44.7 -64.56,12.42 -198.65,42.21 -330.26,-24.83 -79.46,-39.73 -124.16,-96.84 -148.99,-129.12 -42.21,-49.66 -72.01,-106.78 -89.39,-168.85l0 -2.48c0,-161.4 -2.48,-322.81 -4.97,-481.73 -2.48,-86.91 -4.97,-206.1 -7.45,-357.57 -2.48,-62.08 -4.97,-121.67 -4.97,-176.3 -4.97,0 -9.93,2.48 -17.38,2.48 -7.45,0 -17.38,2.48 -34.76,2.48 -9.93,0 -19.87,0 -24.83,0l-9.93 0 0 -310.39 7.45 0c14.9,0 44.7,0 91.88,4.97 57.11,4.97 136.57,7.45 235.9,7.45 29.8,-2.48 62.08,-4.97 94.36,-9.93 27.31,-2.48 57.11,-7.45 86.91,-12.42l9.93 -2.48 0 332.74 -9.93 -2.48c-19.87,0 -42.21,-2.48 -64.56,-4.97l-2.48 0c-2.48,106.78 -4.97,208.58 -2.48,305.43 0,201.13 4.97,404.75 14.9,605.89 14.9,24.83 34.76,44.7 59.6,57.11 32.28,19.87 86.91,34.76 171.34,2.48 49.66,-17.38 84.43,-52.15 104.29,-79.46 7.45,-139.06 12.42,-283.08 14.9,-422.14 4.97,-144.02 4.97,-290.53 2.48,-439.52l0 -34.76c-2.48,0 -4.97,0 -7.45,0 -7.45,0 -17.38,2.48 -34.76,2.48 -9.93,0 -19.87,0 -24.83,0l-9.93 0 0 -310.39 7.45 0c14.9,0 42.21,0 91.88,4.97 54.63,4.97 134.09,7.45 235.9,7.45 29.8,-2.48 62.08,-4.97 94.36,-9.93 27.31,-2.48 57.11,-7.45 86.91,-12.42l9.93 -2.48 0 332.74zm1286.27 576.09c-141.54,0 -248.31,-2.48 -325.29,-9.93 -27.31,0 -47.18,-2.48 -62.08,-2.48l0 216.03c9.93,-2.48 17.38,-2.48 22.35,-2.48 49.66,-4.97 99.33,-7.45 148.99,-9.93l52.15 0 2.48 69.53c0,14.9 0,27.31 2.48,32.28 2.48,12.42 2.48,27.31 2.48,39.73l4.97 47.18 -22.35 17.38c-54.63,42.21 -111.74,62.08 -139.06,69.53 -22.35,4.97 -89.39,22.35 -171.34,2.48 -4.97,0 -84.43,-19.87 -153.96,-81.94 -94.36,-81.94 -161.4,-260.73 -163.89,-449.45 -2.48,-166.37 44.7,-305.43 136.57,-389.85 59.6,-54.63 191.2,-134.09 315.36,-134.09 67.04,0 124.16,14.9 181.27,44.7l32.28 17.38 -4.97 52.15c-2.48,9.93 -2.48,19.87 -2.48,32.28 -2.48,2.48 -2.48,4.97 -2.48,7.45l230.93 0c-2.48,-9.93 -2.48,-22.35 -4.97,-39.73 -4.97,-59.6 -9.93,-144.02 -9.93,-248.31 4.97,-37.25 9.93,-69.53 12.42,-104.29 2.48,-12.42 4.97,-24.83 7.45,-37.25l-240.87 0 4.97 62.08 -72.01 -17.38c-91.88,-22.35 -186.24,-24.83 -275.63,-7.45 -39.73,7.45 -163.89,32.28 -280.6,126.64 -9.93,9.93 -250.8,218.52 -243.35,667.97l0 24.83c4.97,114.22 17.38,422.14 235.9,605.89 47.18,39.73 176.3,129.12 350.12,131.61 67.04,0 129.12,-9.93 191.2,-32.28l79.46 -29.8 -4.97 62.08 245.83 0c-2.48,-9.93 -2.48,-22.35 -4.97,-34.76 -4.97,-34.76 -9.93,-69.53 -12.42,-101.81 0,-116.71 2.48,-206.1 9.93,-270.66 2.48,-29.8 4.97,-52.15 4.97,-69.53l2.48 -54.63 99.33 7.45c2.48,0 4.97,0 4.97,0l0 -228.45c-19.87,2.48 -39.73,4.97 -57.11,7.45 -42.21,4.97 -84.43,9.93 -126.64,12.42zm233.42 -121.67c-44.7,4.97 -81.94,9.93 -116.71,12.42 -24.83,2.48 -49.66,4.97 -72.01,7.45l-49.66 4.97c0,0 -2.48,0 -2.48,0 -131.61,0 -235.9,-2.48 -310.39,-9.93 -86.91,-7.45 -114.22,-4.97 -126.64,-4.97l-39.73 4.97 0 407.24 76.98 0c27.31,0 42.21,-2.48 52.15,-2.48 29.8,-2.48 59.6,-4.97 89.39,-7.45l7.45 0 2.48 7.45c0,4.97 0,7.45 0,9.93 2.48,7.45 2.48,14.9 2.48,22.35l0 4.97 -4.97 2.48c-34.76,22.35 -67.04,32.28 -79.46,34.76 -17.38,4.97 -64.56,17.38 -124.16,2.48 0,0 -59.6,-12.42 -114.22,-59.6 -72.01,-64.56 -126.64,-223.48 -129.12,-377.44 -2.48,-139.06 34.76,-253.28 106.78,-317.84 44.7,-42.21 153.96,-109.26 253.28,-109.26 32.28,0 67.04,7.45 99.33,19.87l4.97 2.48 0 4.97c0,2.48 0,4.97 0,7.45 -2.48,9.93 -2.48,24.83 -2.48,42.21l-2.48 79.46 382.4 0 42.21 -7.45 2.48 -39.73c2.48,-12.42 2.48,-34.76 -4.97,-101.81 -4.97,-54.63 -9.93,-134.09 -9.93,-230.93 4.97,-32.28 7.45,-64.56 12.42,-96.84 4.97,-29.8 9.93,-57.11 14.9,-96.84l9.93 -52.15 -414.69 0 -47.18 4.97 2.48 29.8 -12.42 -2.48c-34.76,-4.97 -69.53,-7.45 -104.29,-7.45 -47.18,0 -94.36,4.97 -139.06,14.9 -126.64,22.35 -233.42,72.01 -322.81,146.51 -12.42,9.93 -288.05,243.35 -280.6,749.91l0 19.87c4.97,126.64 19.87,466.83 270.66,677.9 54.63,47.18 206.1,151.47 412.2,153.96 42.21,2.48 89.39,-2.48 148.99,-14.9l9.93 -2.48 0 17.38 469.31 0 -9.93 -49.66c-7.45,-34.76 -12.42,-67.04 -14.9,-94.36 -2.48,-19.87 -4.97,-39.73 -7.45,-57.11l-4.97 -37.25c0,-109.26 2.48,-193.69 9.93,-253.28 0,-9.93 0,-17.38 2.48,-24.83l0 -7.45 7.45 0c19.87,2.48 37.25,2.48 54.63,4.97l49.66 2.48 0 -442 -49.66 7.45zm12.42 397.3l-7.45 0c-22.35,-2.48 -42.21,-4.97 -62.08,-4.97 -12.42,0 -24.83,-2.48 -37.25,-2.48 -2.48,17.38 -2.48,37.25 -4.97,64.56 -7.45,62.08 -9.93,146.51 -9.93,255.76 2.48,32.28 7.45,67.04 12.42,101.81 2.48,29.8 7.45,59.6 14.9,94.36l2.48 9.93 -389.85 0 2.48 -9.93c0,-4.97 0,-12.42 2.48,-17.38 0,-2.48 0,-2.48 0,-4.97 -64.56,22.35 -129.12,32.28 -193.69,32.28 -2.48,0 -4.97,0 -7.45,0 -196.17,-2.48 -337.71,-101.81 -387.37,-146.51 -240.87,-201.13 -255.76,-528.91 -258.25,-650.58 -2.48,-9.93 -2.48,-17.38 -2.48,-19.87l0 -4.97c-7.45,-484.21 265.7,-715.15 268.18,-717.63 84.43,-69.53 188.72,-116.71 305.43,-139.06 96.84,-19.87 193.69,-17.38 290.53,4.97 0,-2.48 0,-4.97 0,-7.45 0,-4.97 -2.48,-12.42 -2.48,-19.87l-2.48 -17.38 382.4 0 -2.48 17.38c-7.45,34.76 -9.93,62.08 -14.9,91.88 -4.97,32.28 -7.45,64.56 -12.42,96.84 0,99.33 2.48,181.27 9.93,238.38 4.97,49.66 7.45,79.46 4.97,96.84l-2.48 12.42 -352.61 0 0 -42.21c0,-14.9 0,-27.31 2.48,-37.25 0,-9.93 2.48,-17.38 2.48,-27.31 0,-4.97 0,-7.45 0,-12.42 -44.7,-22.35 -91.88,-34.76 -141.54,-37.25l-4.97 0c-104.29,0 -223.48,74.49 -273.15,119.19 -76.98,74.49 -119.19,196.17 -116.71,345.16 2.48,166.37 59.6,332.74 141.54,404.75 59.6,49.66 126.64,67.04 129.12,67.04 67.04,17.38 121.67,2.48 141.54,-2.48 22.35,-7.45 67.04,-22.35 111.74,-57.11 0,-4.97 -2.48,-9.93 -2.48,-14.9 0,-9.93 0,-22.35 -2.48,-32.28 0,-9.93 -2.48,-22.35 -2.48,-39.73l0 -9.93c-47.18,2.48 -91.88,4.97 -136.57,9.93 -9.93,0 -27.31,2.48 -47.18,2.48 -14.9,0 -24.83,0 -32.28,0l-9.93 0 0 -340.19 7.45 -2.48c19.87,0 59.6,2.48 121.67,7.45 74.49,4.97 181.27,7.45 315.36,7.45 39.73,-2.48 81.94,-7.45 124.16,-12.42 37.25,-2.48 74.49,-7.45 116.71,-12.42l9.93 -2.48 0 365.02zm1318.55 -1097.55l-4.97 0c-104.29,0 -183.75,-2.48 -243.35,-7.45 -9.93,-2.48 -22.35,-2.48 -29.8,-2.48l0 181.27c0,0 0,0 0,0l67.04 -4.97 9.93 101.81c2.48,148.99 2.48,297.98 -2.48,439.52 -2.48,141.54 -7.45,285.56 -17.38,429.58l0 14.9 -9.93 12.42c-22.35,32.28 -67.04,76.98 -134.09,104.29 -104.29,39.73 -178.79,17.38 -223.48,-7.45 -32.28,-19.87 -62.08,-47.18 -81.94,-81.94l-4.97 -12.42 0 -12.42c-12.42,-203.62 -17.38,-407.24 -17.38,-610.85 0,-106.78 0,-213.55 2.48,-315.36l2.48 -57.11 69.53 4.97c0,0 2.48,0 4.97,0l0 -191.2c-7.45,2.48 -17.38,2.48 -27.31,4.97 -32.28,2.48 -64.56,7.45 -94.36,9.93 -111.74,0 -191.2,-2.48 -248.31,-7.45 -12.42,-2.48 -22.35,-2.48 -32.28,-2.48l0 181.27c0,0 0,0 2.48,0l72.01 -7.45 12.42 57.11c0,57.11 2.48,119.19 4.97,183.75 2.48,148.99 4.97,260.73 7.45,360.06 2.48,124.16 4.97,285.56 4.97,471.8 14.9,52.15 42.21,101.81 74.49,144.02 24.83,29.8 62.08,76.98 129.12,111.74 114.22,54.63 228.45,32.28 293.01,19.87 44.7,-9.93 89.39,-24.83 134.09,-44.7l76.98 -37.25 -2.48 96.84c37.25,-2.48 74.49,-2.48 114.22,-2.48 34.76,0 72.01,2.48 109.26,2.48 19.87,2.48 37.25,2.48 54.63,2.48l0 -193.69c0,0 -2.48,0 -2.48,0l-59.6 4.97 2.48 -148.99c2.48,-96.84 4.97,-156.44 7.45,-213.55 2.48,-62.08 4.97,-121.67 4.97,-228.45 2.48,-104.29 2.48,-163.89 2.48,-216.03 0,-59.6 0,-104.29 2.48,-186.24 2.48,-42.21 2.48,-84.43 4.97,-124.16l2.48 -54.63 54.63 4.97c12.42,2.48 22.35,2.48 32.28,4.97l0 -193.69c-9.93,2.48 -17.38,2.48 -27.31,4.97 -32.28,2.48 -64.56,7.45 -96.84,9.93zm171.34 -119.19c-32.28,4.97 -59.6,7.45 -86.91,12.42 -29.8,2.48 -62.08,7.45 -91.88,9.93 -99.33,0 -176.3,-2.48 -230.93,-7.45 -64.56,-7.45 -84.43,-7.45 -96.84,-4.97l-39.73 4.97 0 377.44 76.98 -2.48 0 9.93c2.48,144.02 0,288.05 -2.48,424.62 -2.48,136.57 -7.45,273.15 -14.9,409.72l0 2.48 -2.48 2.48c-22.35,24.83 -49.66,44.7 -79.46,57.11 -72.01,27.31 -116.71,14.9 -141.54,0 -17.38,-9.93 -29.8,-22.35 -39.73,-37.25l-2.48 -2.48 0 -2.48c-9.93,-196.17 -14.9,-394.82 -14.9,-590.99 0,-81.94 0,-166.37 2.48,-258.25l0 -9.93 76.98 9.93 0 -414.69 -49.66 9.93c-32.28,4.97 -59.6,7.45 -86.91,12.42l-86.91 9.93c-2.48,0 -2.48,0 -4.97,0 -99.33,0 -176.3,-2.48 -230.93,-7.45 -64.56,-7.45 -84.43,-4.97 -96.84,-4.97l-39.73 4.97 0 377.44 86.91 -2.48 0 7.45c2.48,42.21 2.48,84.43 2.48,129.12 4.97,148.99 7.45,260.73 9.93,357.57 2.48,158.92 2.48,320.33 4.97,481.73l2.48 12.42c17.38,64.56 49.66,126.64 91.88,181.27 27.31,34.76 76.98,94.36 163.89,139.06 141.54,69.53 283.08,42.21 352.61,27.31 27.31,-4.97 54.63,-12.42 81.94,-22.35l12.42 -2.48 -2.48 49.66 49.66 -4.97c54.63,-2.48 109.26,-4.97 163.89,-4.97 34.76,0 69.53,2.48 104.29,2.48 37.25,2.48 72.01,4.97 109.26,7.45l47.18 4.97 0 -394.82 -37.25 -4.97c-4.97,0 -7.45,0 -12.42,0l-9.93 -2.48 0 -39.73c2.48,-94.36 4.97,-153.96 7.45,-208.58l0 -4.97c2.48,-64.56 4.97,-124.16 4.97,-228.45 2.48,-104.29 2.48,-168.85 2.48,-218.52 0,-57.11 0,-101.81 2.48,-181.27 0,-24.83 2.48,-47.18 2.48,-67.04l0 -9.93 9.93 0c12.42,2.48 22.35,2.48 34.76,4.97l47.18 4.97 0 -414.69 -49.66 9.93zm14.9 365.02l-9.93 -2.48c-27.31,-2.48 -52.15,-4.97 -79.46,-7.45 -2.48,37.25 -4.97,74.49 -4.97,114.22 -2.48,79.46 -2.48,126.64 -2.48,183.75 0,49.66 0,114.22 -2.48,218.52 -2.48,104.29 -2.48,163.89 -4.97,228.45 -2.48,57.11 -4.97,116.71 -7.45,213.55 0,27.31 0,52.15 0,79.46 24.83,-2.48 42.21,-2.48 52.15,-2.48l7.45 0 0 325.29 -9.93 0c-34.76,-2.48 -72.01,-4.97 -109.26,-7.45 -89.39,-4.97 -183.75,-2.48 -273.15,2.48l-9.93 2.48 0 -67.04c-42.21,19.87 -89.39,34.76 -136.57,44.7 -64.56,12.42 -198.65,42.21 -330.26,-24.83 -79.46,-39.73 -124.16,-96.84 -148.99,-129.12 -42.21,-49.66 -72.01,-106.78 -89.39,-168.85l0 -2.48c0,-161.4 -2.48,-322.81 -4.97,-481.73 -2.48,-86.91 -4.97,-206.1 -7.45,-357.57 -2.48,-62.08 -4.97,-121.67 -4.97,-176.3 -4.97,0 -9.93,2.48 -17.38,2.48 -7.45,0 -17.38,2.48 -34.76,2.48 -9.93,0 -19.87,0 -24.83,0l-9.93 0 0 -310.39 7.45 0c14.9,0 44.7,0 91.88,4.97 57.11,4.97 136.57,7.45 235.9,7.45 29.8,-2.48 62.08,-4.97 94.36,-9.93 27.31,-2.48 57.11,-7.45 86.91,-12.42l9.93 -2.48 0 332.74 -9.93 -2.48c-19.87,0 -42.21,-2.48 -64.56,-4.97l-2.48 0c-2.48,106.78 -4.97,208.58 -2.48,305.43 0,201.13 4.97,404.75 14.9,605.89 14.9,24.83 34.76,44.7 59.6,57.11 32.28,19.87 86.91,34.76 171.34,2.48 49.66,-17.38 84.43,-52.15 104.29,-79.46 7.45,-139.06 12.42,-283.08 14.9,-422.14 4.97,-144.02 4.97,-290.53 2.48,-439.52l0 -34.76c-2.48,0 -4.97,0 -7.45,0 -7.45,0 -17.38,2.48 -34.76,2.48 -9.93,0 -19.87,0 -24.83,0l-9.93 0 0 -310.39 7.45 0c14.9,0 42.21,0 91.88,4.97 54.63,4.97 134.09,7.45 235.9,7.45 29.8,-2.48 62.08,-4.97 94.36,-9.93 27.31,-2.48 57.11,-7.45 86.91,-12.42l9.93 -2.48 0 332.74z"/>
    <path class="fil1" d="M19148.24 2906.84l-12.42 -42.21c-32.28,-111.74 -64.56,-225.97 -91.88,-337.71 -24.83,-94.36 -42.21,-163.89 -57.11,-235.9 -14.9,-64.56 -32.28,-131.61 -54.63,-223.48 -24.83,-96.84 -49.66,-186.24 -72.01,-268.18l-19.87 -72.01 84.43 4.97 0 -191.2c-22.35,2.48 -42.21,4.97 -62.08,7.45 -42.21,2.48 -84.43,7.45 -124.16,9.93 -139.06,0 -248.31,-2.48 -325.29,-7.45 -27.31,-2.48 -47.18,-4.97 -62.08,-4.97l0 181.27c9.93,0 17.38,0 22.35,-2.48l79.46 -4.97 -22.35 74.49c-49.66,156.44 -94.36,310.39 -131.61,461.87 -52.15,196.17 -91.88,384.89 -114.22,486.7 -9.93,44.7 -19.87,86.91 -27.31,124.16l-9.93 44.7 -54.63 -4.97c-12.42,0 -22.35,-2.48 -32.28,-2.48l0 178.79c0,0 0,0 2.48,0 52.15,-7.45 104.29,-9.93 158.92,-9.93 24.83,0 52.15,0 76.98,2.48 54.63,2.48 109.26,7.45 163.89,12.42l0 -188.72 -62.08 9.93 12.42 -121.67c4.97,-44.7 9.93,-89.39 12.42,-131.61l4.97 -49.66 49.66 0c52.15,2.48 104.29,4.97 158.92,4.97 52.15,0 106.78,2.48 161.4,4.97l42.21 0 7.45 42.21c7.45,52.15 14.9,104.29 22.35,158.92l9.93 94.36 -64.56 -4.97c-7.45,0 -14.9,-2.48 -19.87,-2.48l0 178.79c0,0 0,0 0,0 81.94,-9.93 161.4,-12.42 238.38,-7.45 54.63,2.48 109.26,7.45 163.89,12.42l0 -188.72c-2.48,2.48 -4.97,2.48 -4.97,2.48l-47.18 4.97zm-387.37 -459.38c-37.25,2.48 -74.49,2.48 -114.22,2.48 -4.97,0 -12.42,0 -17.38,0 -39.73,0 -79.46,0 -114.22,-2.48l-64.56 -2.48 14.9 -59.6c12.42,-62.08 29.8,-124.16 47.18,-188.72 22.35,-84.43 49.66,-168.85 79.46,-250.8l54.63 -158.92 44.7 163.89c22.35,74.49 42.21,151.47 62.08,225.97 19.87,69.53 37.25,136.57 54.63,203.62l17.38 64.56 -64.56 2.48zm-121.67 -454.42c-24.83,72.01 -47.18,146.51 -67.04,218.52 -14.9,59.6 -29.8,116.71 -44.7,176.3 39.73,0 79.46,2.48 119.19,2.48 32.28,-2.48 67.04,-2.48 99.33,-4.97 -17.38,-62.08 -34.76,-126.64 -52.15,-191.2 -17.38,-67.04 -34.76,-134.09 -54.63,-201.13zm62.08 360.06l-12.42 0c-12.42,0 -27.31,0 -42.21,0 -22.35,0 -42.21,0 -64.56,0l-9.93 0 2.48 -9.93c9.93,-39.73 19.87,-81.94 32.28,-121.67 7.45,-24.83 14.9,-49.66 22.35,-76.98l7.45 -29.8 24.83 86.91c12.42,47.18 24.83,94.36 37.25,141.54l2.48 9.93zm546.29 442c-7.45,2.48 -14.9,2.48 -19.87,4.97l-9.93 0 0 -7.45c-29.8,-94.36 -54.63,-193.69 -79.46,-288.05 -24.83,-96.84 -39.73,-163.89 -57.11,-233.42l-2.48 -4.97c-14.9,-64.56 -29.8,-131.61 -52.15,-223.48 -17.38,-64.56 -34.76,-131.61 -52.15,-196.17l-2.48 -12.42 49.66 2.48 0 -404.75 -49.66 7.45c-44.7,4.97 -81.94,7.45 -116.71,12.42 -42.21,2.48 -84.43,7.45 -121.67,9.93 0,0 0,0 -2.48,0 -131.61,0 -238.38,-2.48 -310.39,-7.45 -81.94,-7.45 -111.74,-4.97 -126.64,-4.97l-39.73 2.48 0 374.96 64.56 -2.48 -2.48 12.42c-42.21,134.09 -79.46,265.7 -111.74,394.82 -52.15,198.65 -94.36,387.37 -116.71,491.66 -4.97,27.31 -9.93,52.15 -17.38,76.98l0 7.45 -7.45 0c-37.25,-2.48 -52.15,-2.48 -59.6,-2.48l-39.73 4.97 0 372.47 69.53 0c22.35,-2.48 34.76,-2.48 39.73,-2.48 49.66,-7.45 99.33,-9.93 148.99,-9.93 22.35,0 47.18,0 72.01,2.48 74.49,4.97 146.51,9.93 218.52,17.38l47.18 4.97 0 -407.24 -49.66 7.45 2.48 -9.93c2.48,-24.83 4.97,-47.18 4.97,-72.01l2.48 -7.45 7.45 0c37.25,0 72.01,2.48 109.26,2.48 37.25,0 76.98,2.48 116.71,2.48l7.45 0 0 7.45c4.97,24.83 7.45,52.15 9.93,76.98l2.48 9.93 -9.93 0c-12.42,0 -17.38,0 -22.35,0l-39.73 4.97 0 372.47 69.53 0c22.35,-2.48 32.28,-2.48 39.73,-2.48 74.49,-9.93 148.99,-12.42 221,-7.45 74.49,4.97 146.51,9.93 218.52,17.38l47.18 4.97 0 -407.24 -49.66 7.45zm14.9 360.06l-9.93 0c-72.01,-7.45 -146.51,-12.42 -218.52,-17.38 -76.98,-4.97 -151.47,-2.48 -228.45,7.45 -7.45,0 -17.38,0 -34.76,0 -9.93,2.48 -19.87,2.48 -24.83,2.48l-9.93 0 0 -305.43 7.45 -2.48c12.42,0 34.76,0 69.53,4.97l-2.48 -19.87c-4.97,-49.66 -12.42,-99.33 -19.87,-148.99 -52.15,0 -104.29,-2.48 -153.96,-2.48 -49.66,-2.48 -99.33,-2.48 -148.99,-4.97 -4.97,42.21 -7.45,81.94 -12.42,124.16 0,9.93 -2.48,19.87 -2.48,29.8l-2.48 14.9c14.9,-2.48 29.8,-4.97 44.7,-7.45l9.93 0 0 325.29 -9.93 0c-72.01,-7.45 -146.51,-12.42 -218.52,-17.38 -74.49,-4.97 -151.47,-2.48 -228.45,7.45 -7.45,0 -17.38,0 -34.76,0 -9.93,0 -19.87,2.48 -24.83,2.48l-9.93 0 0 -305.43 7.45 -2.48c14.9,0 44.7,2.48 91.88,4.97 7.45,-34.76 17.38,-74.49 24.83,-114.22 22.35,-104.29 64.56,-293.01 116.71,-489.18 37.25,-148.99 79.46,-300.46 129.12,-451.93 -9.93,0 -22.35,0 -37.25,0l-42.21 0 0 -305.43 7.45 0c19.87,-2.48 59.6,0 121.67,4.97 74.49,4.97 181.27,7.45 315.36,7.45 39.73,-2.48 81.94,-7.45 124.16,-9.93 37.25,-2.48 74.49,-7.45 116.71,-12.42l9.93 -2.48 0 327.78 -7.45 0c-14.9,-2.48 -29.8,-2.48 -44.7,-4.97l-7.45 0c22.35,86.91 44.7,171.34 67.04,258.25 22.35,91.88 39.73,158.92 54.63,225.97 17.38,72.01 32.28,139.06 57.11,233.42 27.31,109.26 57.11,218.52 89.39,327.78 19.87,-2.48 39.73,-4.97 59.6,-9.93l9.93 0 0 325.29zm1164.6 -1596.66c-109.26,0 -193.69,-2.48 -255.76,-7.45 -19.87,-2.48 -34.76,-2.48 -47.18,-2.48l0 178.79 81.94 -2.48 -44.7 81.94 -206.1 325.29 -44.7 -67.04c-67.04,-101.81 -119.19,-183.75 -161.4,-250.8l-59.6 -89.39 81.94 7.45 0 -188.72c-14.9,2.48 -29.8,2.48 -47.18,4.97 -32.28,2.48 -64.56,7.45 -96.84,9.93 -109.26,0 -196.17,-2.48 -255.76,-7.45 -19.87,-2.48 -34.76,-2.48 -47.18,-2.48l0 178.79c7.45,-2.48 12.42,-2.48 17.38,-2.48l62.08 -4.97 19.87 24.83c9.93,14.9 19.87,27.31 27.31,37.25 57.11,81.94 121.67,173.82 193.69,275.63 69.53,101.81 134.09,196.17 188.72,278.11l9.93 14.9 0 14.9c-2.48,119.19 -4.97,240.87 -9.93,360.06l-7.45 196.17 -54.63 -2.48c-4.97,-2.48 -9.93,-2.48 -14.9,-2.48l0 178.79c4.97,0 7.45,0 9.93,0 49.66,-7.45 99.33,-9.93 146.51,-9.93 24.83,0 49.66,0 74.49,2.48 54.63,2.48 106.78,7.45 163.89,12.42l0 -186.24c-7.45,0 -14.9,0 -24.83,2.48l-57.11 7.45 -4.97 -121.67c-4.97,-94.36 -7.45,-188.72 -12.42,-280.6l0 -158.92 9.93 -12.42c54.63,-81.94 119.19,-178.79 193.69,-285.56 74.49,-106.78 141.54,-201.13 201.13,-283.08l39.73 -57.11 29.8 2.48c14.9,2.48 29.8,2.48 44.7,4.97l0 -188.72c-14.9,2.48 -29.8,2.48 -44.7,4.97 -34.76,2.48 -67.04,7.45 -99.33,9.93zm178.79 -119.19c-29.8,4.97 -59.6,9.93 -89.39,12.42 -22.35,2.48 -44.7,4.97 -64.56,7.45l-27.31 2.48c-2.48,0 -2.48,0 -2.48,0 -104.29,0 -183.75,-2.48 -240.87,-7.45 -69.53,-4.97 -89.39,-4.97 -104.29,-4.97l-49.66 4.97 0 369.99 7.45 0 -7.45 14.9 -74.49 114.22 -84.43 -131.61 0 -389.85 -62.08 9.93c-29.8,2.48 -62.08,7.45 -91.88,9.93 -22.35,2.48 -42.21,4.97 -64.56,7.45l-27.31 2.48c0,0 0,0 -2.48,0 -101.81,0 -183.75,-2.48 -240.87,-7.45 -67.04,-4.97 -89.39,-4.97 -101.81,-4.97l-49.66 4.97 0 369.99 81.94 0c22.35,0 37.25,-2.48 42.21,-2.48l7.45 0 12.42 17.38c62.08,86.91 126.64,178.79 193.69,275.63 67.04,96.84 129.12,186.24 178.79,260.73l0 2.48 0 2.48c0,114.22 -4.97,228.45 -7.45,342.67l-2.48 96.84 -9.93 0c-4.97,0 -9.93,0 -14.9,0l-49.66 4.97 0 369.99 79.46 -2.48c19.87,0 32.28,0 39.73,0 44.7,-7.45 89.39,-9.93 136.57,-9.93 22.35,0 44.7,2.48 67.04,2.48 64.56,4.97 134.09,9.93 206.1,17.38l59.6 4.97 0 -407.24 -86.91 12.42 0 -14.9c-4.97,-94.36 -7.45,-188.72 -12.42,-278.11l0 -126.64 2.48 -2.48c54.63,-81.94 116.71,-173.82 183.75,-270.66 72.01,-99.33 139.06,-196.17 201.13,-280.6l7.45 -12.42 4.97 0c19.87,2.48 39.73,2.48 59.6,4.97l59.6 4.97 0 -404.75 -62.08 7.45zm27.31 360.06l-22.35 -2.48c-27.31,-2.48 -54.63,-4.97 -84.43,-7.45l-19.87 29.8c-59.6,84.43 -129.12,178.79 -198.65,280.6 -74.49,106.78 -139.06,201.13 -193.69,283.08l0 136.57c2.48,91.88 7.45,186.24 12.42,278.11 0,19.87 2.48,37.25 2.48,57.11 19.87,-2.48 39.73,-7.45 59.6,-9.93l24.83 -2.48 0 325.29 -22.35 -2.48c-72.01,-4.97 -141.54,-12.42 -206.1,-14.9 -69.53,-4.97 -141.54,-2.48 -211.07,4.97 -7.45,2.48 -19.87,2.48 -34.76,2.48l-44.7 2.48 0 -302.94 17.38 -2.48c9.93,0 27.31,0 54.63,2.48l2.48 -59.6c0,-24.83 2.48,-49.66 2.48,-74.49 4.97,-119.19 7.45,-238.38 9.93,-355.09 -54.63,-79.46 -116.71,-171.34 -188.72,-273.15 -69.53,-101.81 -134.09,-193.69 -191.2,-275.63 -7.45,-9.93 -14.9,-22.35 -24.83,-34.76 -9.93,0 -19.87,0 -29.8,2.48 -7.45,0 -22.35,0 -37.25,2.48l-47.18 0 0 -302.94 17.38 -2.48c14.9,0 47.18,0 96.84,4.97 59.6,4.97 141.54,7.45 245.83,7.45 29.8,-2.48 64.56,-4.97 96.84,-9.93 29.8,-2.48 62.08,-7.45 91.88,-9.93l22.35 -4.97 0 327.78 -24.83 -2.48c39.73,59.6 86.91,134.09 144.02,221l24.83 -34.76c47.18,-76.98 89.39,-141.54 124.16,-193.69l-37.25 0 0 -302.94 17.38 -2.48c14.9,0 44.7,0 94.36,4.97 59.6,4.97 141.54,7.45 245.83,7.45 32.28,-2.48 64.56,-4.97 96.84,-9.93 29.8,-2.48 62.08,-7.45 91.88,-9.93l22.35 -4.97 0 327.78zm1137.28 1107.48l-12.42 -42.21c-32.28,-111.74 -64.56,-225.97 -91.88,-337.71 -24.83,-94.36 -42.21,-163.89 -57.11,-235.9 -14.9,-64.56 -32.28,-131.61 -54.63,-223.48 -24.83,-96.84 -49.66,-186.24 -72.01,-268.18l-19.87 -72.01 84.43 4.97 0 -191.2c-22.35,2.48 -42.21,4.97 -62.08,7.45 -42.21,2.48 -84.43,7.45 -124.16,9.93 -139.06,0 -248.31,-2.48 -325.29,-7.45 -27.31,-2.48 -47.18,-4.97 -62.08,-4.97l0 181.27c9.93,0 17.38,0 22.35,-2.48l79.46 -4.97 -22.35 74.49c-49.66,156.44 -94.36,310.39 -131.61,461.87 -52.15,196.17 -91.88,384.89 -114.22,486.7 -9.93,44.7 -19.87,86.91 -27.31,124.16l-9.93 44.7 -54.63 -4.97c-12.42,0 -22.35,-2.48 -32.28,-2.48l0 178.79c0,0 0,0 2.48,0 52.15,-7.45 104.29,-9.93 158.92,-9.93 24.83,0 52.15,0 76.98,2.48 54.63,2.48 109.26,7.45 163.89,12.42l0 -188.72 -62.08 9.93 12.42 -121.67c4.97,-44.7 9.93,-89.39 12.42,-131.61l4.97 -49.66 49.66 0c52.15,2.48 104.29,4.97 158.92,4.97 52.15,0 106.78,2.48 161.4,4.97l42.21 0 7.45 42.21c7.45,52.15 14.9,104.29 22.35,158.92l9.93 94.36 -64.56 -4.97c-7.45,0 -14.9,-2.48 -19.87,-2.48l0 178.79c0,0 0,0 0,0 81.94,-9.93 161.4,-12.42 238.38,-7.45 54.63,2.48 109.26,7.45 163.89,12.42l0 -188.72c-2.48,2.48 -4.97,2.48 -4.97,2.48l-47.18 4.97zm-387.37 -459.38c-37.25,2.48 -74.49,2.48 -114.22,2.48 -4.97,0 -12.42,0 -17.38,0 -39.73,0 -79.46,0 -114.22,-2.48l-64.56 -2.48 14.9 -59.6c12.42,-62.08 29.8,-124.16 47.18,-188.72 22.35,-84.43 49.66,-168.85 79.46,-250.8l54.63 -158.92 44.7 163.89c22.35,74.49 42.21,151.47 62.08,225.97 19.87,69.53 37.25,136.57 54.63,203.62l17.38 64.56 -64.56 2.48zm-121.67 -454.42c-24.83,72.01 -47.18,146.51 -67.04,218.52 -14.9,59.6 -29.8,116.71 -44.7,176.3 39.73,0 79.46,2.48 119.19,2.48 32.28,-2.48 67.04,-2.48 99.33,-4.97 -17.38,-62.08 -34.76,-126.64 -52.15,-191.2 -17.38,-67.04 -34.76,-134.09 -54.63,-201.13zm62.08 360.06l-12.42 0c-12.42,0 -27.31,0 -42.21,0 -22.35,0 -42.21,0 -64.56,0l-9.93 0 2.48 -9.93c9.93,-39.73 19.87,-81.94 32.28,-121.67 7.45,-24.83 14.9,-49.66 22.35,-76.98l7.45 -29.8 24.83 86.91c12.42,47.18 24.83,94.36 37.25,141.54l2.48 9.93zm546.29 442c-7.45,2.48 -14.9,2.48 -19.87,4.97l-9.93 0 0 -7.45c-29.8,-94.36 -54.63,-193.69 -79.46,-288.05 -24.83,-96.84 -39.73,-163.89 -57.11,-233.42l-2.48 -4.97c-14.9,-64.56 -29.8,-131.61 -52.15,-223.48 -17.38,-64.56 -34.76,-131.61 -52.15,-196.17l-2.48 -12.42 49.66 2.48 0 -404.75 -49.66 7.45c-44.7,4.97 -81.94,7.45 -116.71,12.42 -42.21,2.48 -84.43,7.45 -121.67,9.93 0,0 0,0 -2.48,0 -131.61,0 -238.38,-2.48 -310.39,-7.45 -81.94,-7.45 -111.74,-4.97 -126.64,-4.97l-39.73 2.48 0 374.96 64.56 -2.48 -2.48 12.42c-42.21,134.09 -79.46,265.7 -111.74,394.82 -52.15,198.65 -94.36,387.37 -116.71,491.66 -4.97,27.31 -9.93,52.15 -17.38,76.98l0 7.45 -7.45 0c-37.25,-2.48 -52.15,-2.48 -59.6,-2.48l-39.73 4.97 0 372.47 69.53 0c22.35,-2.48 34.76,-2.48 39.73,-2.48 49.66,-7.45 99.33,-9.93 148.99,-9.93 22.35,0 47.18,0 72.01,2.48 74.49,4.97 146.51,9.93 218.52,17.38l47.18 4.97 0 -407.24 -49.66 7.45 2.48 -9.93c2.48,-24.83 4.97,-47.18 4.97,-72.01l2.48 -7.45 7.45 0c37.25,0 72.01,2.48 109.26,2.48 37.25,0 76.98,2.48 116.71,2.48l7.45 0 0 7.45c4.97,24.83 7.45,52.15 9.93,76.98l2.48 9.93 -9.93 0c-12.42,0 -17.38,0 -22.35,0l-39.73 4.97 0 372.47 69.53 0c22.35,-2.48 32.28,-2.48 39.73,-2.48 74.49,-9.93 148.99,-12.42 221,-7.45 74.49,4.97 146.51,9.93 218.52,17.38l47.18 4.97 0 -407.24 -49.66 7.45zm14.9 360.06l-9.93 0c-72.01,-7.45 -146.51,-12.42 -218.52,-17.38 -76.98,-4.97 -151.47,-2.48 -228.45,7.45 -7.45,0 -17.38,0 -34.76,0 -9.93,2.48 -19.87,2.48 -24.83,2.48l-9.93 0 0 -305.43 7.45 -2.48c12.42,0 34.76,0 69.53,4.97l-2.48 -19.87c-4.97,-49.66 -12.42,-99.33 -19.87,-148.99 -52.15,0 -104.29,-2.48 -153.96,-2.48 -49.66,-2.48 -99.33,-2.48 -148.99,-4.97 -4.97,42.21 -7.45,81.94 -12.42,124.16 0,9.93 -2.48,19.87 -2.48,29.8l-2.48 14.9c14.9,-2.48 29.8,-4.97 44.7,-7.45l9.93 0 0 325.29 -9.93 0c-72.01,-7.45 -146.51,-12.42 -218.52,-17.38 -74.49,-4.97 -151.47,-2.48 -228.45,7.45 -7.45,0 -17.38,0 -34.76,0 -9.93,0 -19.87,2.48 -24.83,2.48l-9.93 0 0 -305.43 7.45 -2.48c14.9,0 44.7,2.48 91.88,4.97 7.45,-34.76 17.38,-74.49 24.83,-114.22 22.35,-104.29 64.56,-293.01 116.71,-489.18 37.25,-148.99 79.46,-300.46 129.12,-451.93 -9.93,0 -22.35,0 -37.25,0l-42.21 0 0 -305.43 7.45 0c19.87,-2.48 59.6,0 121.67,4.97 74.49,4.97 181.27,7.45 315.36,7.45 39.73,-2.48 81.94,-7.45 124.16,-9.93 37.25,-2.48 74.49,-7.45 116.71,-12.42l9.93 -2.48 0 327.78 -7.45 0c-14.9,-2.48 -29.8,-2.48 -44.7,-4.97l-7.45 0c22.35,86.91 44.7,171.34 67.04,258.25 22.35,91.88 39.73,158.92 54.63,225.97 17.38,72.01 32.28,139.06 57.11,233.42 27.31,109.26 57.11,218.52 89.39,327.78 19.87,-2.48 39.73,-4.97 59.6,-9.93l9.93 0 0 325.29zm1859.88 -1286.27c-129.12,-163.89 -250.8,-265.7 -365.02,-300.46 -24.83,-7.45 -52.15,-14.9 -84.43,-19.87l-389.85 0c-7.45,0 -17.38,0 -24.83,-2.48l0 208.58c0,0 2.48,0 2.48,0l84.43 -9.93 0 59.6c2.48,156.44 4.97,317.84 4.97,481.73 0,176.3 -2.48,355.09 -7.45,543.81l-2.48 57.11 -57.11 -4.97c-9.93,0 -17.38,-2.48 -24.83,-2.48l0 213.55c148.99,-4.97 297.98,-4.97 446.97,-4.97 17.38,-2.48 34.76,-7.45 52.15,-12.42 114.22,-34.76 235.9,-136.57 365.02,-300.46 119.19,-297.98 119.19,-603.4 0,-906.35zm-221 759.84c-22.35,49.66 -52.15,104.29 -114.22,151.47 -44.7,34.76 -96.84,57.11 -153.96,67.04l-59.6 12.42 -2.48 -62.08c-4.97,-158.92 -7.45,-320.33 -7.45,-479.25 2.48,-158.92 4.97,-317.84 9.93,-474.28l2.48 -64.56 64.56 14.9c54.63,14.9 106.78,39.73 148.99,74.49 59.6,47.18 89.39,99.33 111.74,148.99 47.18,96.84 69.53,198.65 69.53,305.43 0,106.78 -22.35,208.58 -69.53,305.43zm307.91 -802.06l-4.97 -12.42c-146.51,-186.24 -280.6,-295.49 -417.17,-337.71 -29.8,-9.93 -64.56,-17.38 -101.81,-24.83l-4.97 0 -392.34 0c-17.38,0 -34.76,-2.48 -52.15,-2.48 -9.93,0 -22.35,0 -32.28,0l-42.21 0 0 404.75 86.91 0 0 7.45c2.48,148.99 4.97,288.05 4.97,424.62 0,158.92 -2.48,317.84 -7.45,486.7l0 9.93 -9.93 -2.48c-19.87,0 -29.8,0 -34.76,0l-39.73 4.97 0 407.24 69.53 -2.48c148.99,-2.48 310.39,-4.97 479.25,-2.48l4.97 0 2.48 -2.48c27.31,-4.97 49.66,-9.93 69.53,-17.38 136.57,-42.21 273.15,-151.47 417.17,-337.71l4.97 -12.42c131.61,-325.29 131.61,-660.52 0,-990.78zm-32.28 978.36l0 2.48c-139.06,178.79 -273.15,288.05 -399.79,327.78 -19.87,4.97 -42.21,9.93 -64.56,14.9 -161.4,0 -322.81,0 -481.73,4.97l-34.76 0 0 -337.71 7.45 0c12.42,-2.48 37.25,0 76.98,2.48 4.97,-186.24 7.45,-360.06 7.45,-533.88 0,-151.47 0,-307.91 -4.97,-471.8 -4.97,0 -9.93,2.48 -14.9,2.48 -7.45,0 -19.87,0 -37.25,2.48 -9.93,0 -19.87,0 -24.83,0l-9.93 0 0 -335.22 9.93 0c7.45,0 17.38,0 27.31,0 17.38,0 34.76,2.48 52.15,2.48l392.34 0c37.25,7.45 69.53,14.9 99.33,24.83 126.64,37.25 260.73,146.51 399.79,325.29l0 2.48c129.12,322.81 129.12,648.1 0,965.94zm-427.1 -888.97c-32.28,-24.83 -72.01,-47.18 -114.22,-59.6 -4.97,153.96 -9.93,307.91 -9.93,461.87 0,156.44 2.48,312.88 7.45,466.83 42.21,-9.93 81.94,-27.31 116.71,-52.15 49.66,-39.73 74.49,-86.91 96.84,-131.61 42.21,-86.91 64.56,-181.27 64.56,-278.11 0,-96.84 -22.35,-191.2 -64.56,-278.11 -19.87,-39.73 -44.7,-86.91 -96.84,-129.12zm64.56 670.45c-19.87,42.21 -42.21,81.94 -86.91,116.71 -14.9,12.42 -29.8,22.35 -47.18,29.8l-12.42 4.97 -2.48 -12.42c-2.48,-136.57 -4.97,-273.15 -2.48,-407.24 0,-131.61 2.48,-265.7 4.97,-397.3l0 -14.9 12.42 7.45c17.38,7.45 34.76,19.87 49.66,32.28 44.7,34.76 67.04,76.98 84.43,114.22 39.73,84.43 59.6,171.34 59.6,263.21 0,91.88 -19.87,181.27 -59.6,263.21zm1700.96 407.24c0,-96.84 2.48,-166.37 7.45,-216.03 2.48,-7.45 2.48,-12.42 2.48,-17.38l-188.72 0c2.48,22.35 4.97,47.18 7.45,72.01l2.48 54.63 -57.11 0c-86.91,7.45 -156.44,12.42 -203.62,12.42 -47.18,0 -116.71,-2.48 -206.1,-7.45l-47.18 -2.48 -4.97 -47.18c-2.48,-47.18 -4.97,-94.36 -7.45,-144.02 0,-44.7 -2.48,-94.36 -4.97,-141.54l0 -129.12 54.63 0c69.53,0 126.64,2.48 168.85,2.48l54.63 2.48 -4.97 54.63c0,12.42 -2.48,22.35 -2.48,34.76l198.65 0c0,-9.93 -2.48,-19.87 -2.48,-29.8 -4.97,-32.28 -7.45,-62.08 -12.42,-94.36 0,-109.26 2.48,-191.2 9.93,-248.31 0,-12.42 2.48,-22.35 2.48,-32.28l-191.2 0c0,2.48 0,2.48 0,2.48l7.45 76.98 -52.15 14.9c-32.28,2.48 -54.63,4.97 -64.56,7.45 -12.42,0 -34.76,0 -111.74,-4.97l-52.15 -2.48 0 -49.66c0,-67.04 2.48,-131.61 2.48,-191.2l4.97 -211.07 52.15 0c7.45,0 14.9,0 24.83,0l29.8 -4.97c171.34,0 288.05,2.48 355.09,9.93l54.63 4.97 -4.97 52.15c-2.48,19.87 -4.97,37.25 -4.97,54.63l196.17 0c0,-4.97 0,-9.93 -2.48,-14.9 -2.48,-27.31 -7.45,-54.63 -9.93,-81.94 0,-94.36 2.48,-163.89 7.45,-216.03 2.48,-4.97 2.48,-12.42 2.48,-17.38 -327.78,0 -658.03,0 -988.29,2.48l0 208.58c0,0 0,0 2.48,0l67.04 -7.45 7.45 54.63c7.45,216.03 9.93,429.58 4.97,633.2 -2.48,131.61 -4.97,260.73 -9.93,392.34l0 57.11 -57.11 -4.97c-4.97,0 -9.93,0 -14.9,-2.48l0 211.07c0,0 2.48,0 2.48,0 17.38,0 148.99,-2.48 988.29,0 0,-4.97 0,-9.93 -2.48,-14.9 -2.48,-27.31 -7.45,-54.63 -9.93,-81.94zm119.19 139.06c-4.97,-24.83 -7.45,-49.66 -12.42,-72.01l-4.97 -32.28c-2.48,-14.9 -2.48,-29.8 -4.97,-42.21 0,-84.43 2.48,-151.47 7.45,-198.65 7.45,-57.11 7.45,-74.49 4.97,-86.91l-4.97 -37.25 -384.89 0 2.48 67.04c0,17.38 0,29.8 2.48,34.76 0,7.45 2.48,12.42 2.48,19.87l0 9.93 -7.45 0c-64.56,4.97 -114.22,7.45 -148.99,7.45 -37.25,0 -86.91,-2.48 -153.96,-4.97l-9.93 0 0 -7.45c-2.48,-32.28 -2.48,-64.56 -2.48,-94.36 -2.48,-47.18 -4.97,-94.36 -7.45,-139.06l0 -32.28 9.93 0c19.87,0 39.73,0 57.11,2.48l7.45 0 -7.45 91.88 419.65 0 -7.45 -52.15c-4.97,-32.28 -9.93,-59.6 -12.42,-86.91l-12.42 -86.91c0,-99.33 2.48,-178.79 9.93,-233.42 4.97,-67.04 4.97,-86.91 4.97,-99.33l-4.97 -39.73 -384.89 0 0 72.01c0,7.45 2.48,12.42 2.48,17.38l0 9.93 -7.45 0c-4.97,0 -9.93,2.48 -12.42,2.48 -4.97,0 -17.38,0 -49.66,-2.48l-7.45 0 0 -7.45c0,-49.66 0,-94.36 2.48,-139.06l2.48 -119.19 14.9 -2.48c2.48,0 4.97,0 7.45,0 119.19,0 216.03,2.48 280.6,4.97l9.93 2.48 0 7.45c-2.48,19.87 -4.97,39.73 -7.45,57.11l-4.97 49.66 424.62 0 -12.42 -52.15c-4.97,-24.83 -7.45,-49.66 -12.42,-74.49l-4.97 -29.8c-2.48,-17.38 -2.48,-29.8 -4.97,-42.21 0,-84.43 2.48,-151.47 7.45,-198.65 7.45,-57.11 7.45,-76.98 4.97,-86.91l-4.97 -39.73 -37.25 0c-342.67,0 -692.8,0 -1072.72,2.48l-69.53 0 0 404.75 79.46 -2.48 0 9.93c4.97,193.69 7.45,387.37 2.48,571.12 -2.48,101.81 -4.97,213.55 -7.45,337.71l0 7.45 -9.93 0c-9.93,0 -19.87,0 -24.83,2.48l-39.73 2.48 0 362.54 4.97 44.7 64.56 -2.48c19.87,0 34.76,-2.48 39.73,-2.48 22.35,0 335.22,-2.48 1042.92,0l54.63 0 -12.42 -54.63zm-42.21 17.38c-685.35,0 -1025.54,0 -1045.41,2.48l-2.48 -9.93 0 9.93c-2.48,0 -17.38,2.48 -34.76,2.48l-34.76 0 0 -337.71 7.45 0c12.42,-2.48 32.28,-2.48 67.04,2.48 2.48,-144.02 4.97,-270.66 7.45,-384.89 4.97,-198.65 2.48,-407.24 -4.97,-618.3 0,0 -2.48,0 -4.97,0 -7.45,2.48 -19.87,2.48 -37.25,2.48 -9.93,0 -19.87,0 -24.83,0l-9.93 0 0 -332.74 34.76 0c365.02,-2.48 725.08,-2.48 1070.24,0l9.93 0 0 7.45c2.48,9.93 0,37.25 -4.97,76.98 -4.97,49.66 -9.93,116.71 -9.93,201.13 4.97,27.31 7.45,52.15 12.42,79.46 2.48,24.83 7.45,49.66 12.42,76.98l2.48 9.93 -340.19 0 0 -9.93c4.97,-32.28 7.45,-67.04 12.42,-104.29 -67.04,-4.97 -181.27,-7.45 -337.71,-7.45l-29.8 2.48c-7.45,2.48 -14.9,2.48 -19.87,2.48 -2.48,47.18 -2.48,96.84 -4.97,151.47 0,54.63 -2.48,116.71 -2.48,181.27 49.66,2.48 81.94,2.48 96.84,2.48 7.45,-2.48 27.31,-2.48 54.63,-7.45 0,-7.45 0,-14.9 -2.48,-22.35 0,-7.45 0,-19.87 -2.48,-37.25 0,-9.93 0,-17.38 0,-24.83l0 -7.45 317.84 0 0 7.45c2.48,12.42 0,42.21 -4.97,89.39 -4.97,57.11 -7.45,136.57 -7.45,238.38 2.48,29.8 7.45,59.6 12.42,91.88 2.48,27.31 7.45,57.11 12.42,86.91l2.48 12.42 -342.67 0 2.48 -9.93c2.48,-27.31 4.97,-54.63 7.45,-81.94 -39.73,-2.48 -89.39,-2.48 -148.99,-2.48l0 64.56c2.48,47.18 4.97,96.84 4.97,144.02 2.48,42.21 4.97,86.91 7.45,131.61 86.91,4.97 151.47,7.45 196.17,7.45 44.7,0 109.26,-4.97 196.17,-9.93 -2.48,-24.83 -4.97,-47.18 -7.45,-67.04 -2.48,-7.45 -2.48,-17.38 -2.48,-32.28 0,-7.45 0,-14.9 0,-19.87l0 -9.93 317.84 0 0 7.45c2.48,12.42 0,37.25 -4.97,79.46 -4.97,47.18 -7.45,114.22 -7.45,201.13 2.48,24.83 4.97,52.15 9.93,79.46 2.48,22.35 7.45,47.18 12.42,74.49l2.48 9.93 -9.93 0z"/>
    <path class="fil1" d="M27325.24 2062.57c2.48,-69.53 4.97,-144.02 7.45,-253.28l2.48 -67.04 57.11 0c4.97,0 12.42,2.48 17.38,2.48l0 -201.13c-7.45,2.48 -14.9,2.48 -24.83,4.97 -29.8,2.48 -59.6,7.45 -89.39,9.93 -106.78,0 -181.27,-2.48 -238.38,-7.45 -9.93,-2.48 -17.38,-2.48 -24.83,-2.48l0 191.2 67.04 -7.45 7.45 114.22 2.48 218.52c2.48,119.19 2.48,250.8 2.48,347.64l0 208.58 -99.33 -183.75c-79.46,-146.51 -156.44,-297.98 -225.97,-449.45 -67.04,-146.51 -131.61,-297.98 -191.2,-449.45 -106.78,0 -213.55,-2.48 -320.33,-2.48l0 211.07c0,0 2.48,0 2.48,0l67.04 -7.45 4.97 57.11c7.45,211.07 9.93,422.14 4.97,623.27 -2.48,139.06 -7.45,280.6 -9.93,422.14l-2.48 54.63 -57.11 -4.97c-2.48,0 -7.45,0 -9.93,0l0 191.2c0,0 0,0 0,0 14.9,-2.48 27.31,-2.48 39.73,-4.97l240.87 0c42.21,2.48 81.94,7.45 121.67,9.93l0 -201.13c-9.93,2.48 -17.38,2.48 -27.31,4.97l-57.11 7.45 -17.38 -54.63c-4.97,-104.29 -7.45,-203.62 -12.42,-305.43l0 -139.06c0,-44.7 2.48,-86.91 2.48,-129.12l4.97 -183.75 94.36 158.92c86.91,148.99 171.34,305.43 245.83,461.87 57.11,121.67 111.74,245.83 161.4,369.99 302.94,4.97 325.29,7.45 332.74,7.45 2.48,0 2.48,0 4.97,0l0 -211.07c-4.97,0 -9.93,2.48 -17.38,2.48l-54.63 4.97 -2.48 -54.63c-7.45,-146.51 -12.42,-275.63 -14.9,-419.65 0,-32.28 0,-67.04 0,-116.71 2.48,-86.91 2.48,-153.96 4.97,-228.45zm99.33 2.48c0,-59.6 2.48,-124.16 4.97,-211.07l0 -9.93 9.93 0c4.97,0 12.42,2.48 17.38,2.48l49.66 4.97 0 -422.14 -52.15 9.93c-24.83,4.97 -52.15,7.45 -81.94,12.42 -14.9,2.48 -29.8,4.97 -44.7,7.45l-37.25 2.48c-2.48,0 -2.48,0 -4.97,0 -91.88,0 -166.37,-2.48 -218.52,-7.45 -62.08,-7.45 -81.94,-4.97 -91.88,-4.97l-39.73 4.97 0 384.89 74.49 -2.48 2.48 230.93c0,42.21 2.48,84.43 2.48,129.12l0 37.25 -17.38 -34.76c-42.21,-81.94 -84.43,-166.37 -121.67,-250.8 -72.01,-156.44 -141.54,-315.36 -201.13,-476.76l-12.42 -27.31 -29.8 0c-124.16,-2.48 -250.8,-4.97 -377.44,-4.97l-76.98 -2.48 0 412.2 76.98 -2.48 0 9.93c4.97,191.2 7.45,379.92 2.48,561.19 -2.48,109.26 -4.97,228.45 -9.93,365.02l0 9.93 -7.45 0c-9.93,0 -17.38,0 -22.35,0l-39.73 4.97 0 384.89 69.53 -2.48c17.38,0 32.28,0 39.73,0 7.45,-2.48 14.9,-2.48 22.35,-2.48l9.93 -2.48 233.42 0c62.08,4.97 119.19,9.93 173.82,14.9l47.18 4.97 0 -422.14 -49.66 9.93c-14.9,2.48 -29.8,4.97 -44.7,7.45l-7.45 0 -2.48 -9.93c-2.48,-79.46 -4.97,-161.4 -7.45,-240.87l0 -104.29 14.9 29.8c52.15,94.36 101.81,191.2 146.51,285.56 62.08,129.12 119.19,263.21 168.85,397.3l12.42 27.31 29.8 0c218.52,2.48 345.16,7.45 362.54,7.45 7.45,0 22.35,2.48 39.73,2.48l69.53 2.48 0 -407.24 -39.73 -2.48c-4.97,-2.48 -12.42,-2.48 -27.31,-2.48l-9.93 2.48 0 -9.93c-4.97,-116.71 -9.93,-233.42 -12.42,-362.54 0,-29.8 0,-64.56 0,-114.22 2.48,-84.43 4.97,-151.47 7.45,-225.97zm-42.21 342.67c2.48,141.54 7.45,265.7 14.9,407.24 32.28,-2.48 54.63,-4.97 67.04,-2.48l7.45 0 0 337.71 -9.93 0c-4.97,0 -12.42,0 -24.83,0 -17.38,0 -32.28,-2.48 -34.76,-2.48 -14.9,-2.48 -91.88,-2.48 -367.51,-7.45l-4.97 0 -2.48 -4.97c-52.15,-136.57 -109.26,-270.66 -171.34,-399.79 -69.53,-146.51 -146.51,-290.53 -228.45,-432.07 0,29.8 -2.48,62.08 -2.48,96.84l0 139.06c4.97,99.33 7.45,196.17 12.42,290.53l4.97 0c27.31,-2.48 57.11,-7.45 86.91,-12.42l9.93 -2.48 0 340.19 -9.93 0c-52.15,-4.97 -109.26,-9.93 -173.82,-14.9l-235.9 0c-12.42,0 -24.83,2.48 -37.25,2.48 -7.45,2.48 -19.87,2.48 -34.76,2.48 -9.93,0 -19.87,0 -24.83,0l-9.93 2.48 0 -317.84 7.45 -2.48c12.42,0 32.28,0 62.08,2.48 4.97,-153.96 7.45,-288.05 9.93,-412.2 4.97,-196.17 2.48,-402.27 -4.97,-608.37 0,0 -2.48,0 -2.48,0 -7.45,0 -19.87,2.48 -37.25,2.48l-34.76 0 0 -337.71 9.93 0c9.93,0 22.35,0 32.28,0 126.64,0 253.28,2.48 377.44,4.97l7.45 0 0 4.97c62.08,161.4 131.61,322.81 203.62,479.25 64.56,139.06 134.09,278.11 206.1,414.69 0,-91.88 0,-206.1 -2.48,-310.39 0,-37.25 0,-124.16 -2.48,-221l0 -47.18c-2.48,0 -4.97,0 -7.45,0 -7.45,2.48 -19.87,2.48 -34.76,2.48 -9.93,0 -17.38,0 -22.35,0l-9.93 0 0 -315.36 7.45 -2.48c12.42,0 42.21,0 86.91,4.97 52.15,4.97 129.12,9.93 223.48,9.93 29.8,-4.97 59.6,-7.45 89.39,-12.42 27.31,-2.48 57.11,-7.45 84.43,-12.42l9.93 -2.48 0 340.19 -9.93 0c-22.35,-2.48 -44.7,-4.97 -67.04,-7.45l0 4.97c-2.48,109.26 -4.97,186.24 -7.45,255.76 -2.48,74.49 -4.97,139.06 -4.97,225.97 0,49.66 0,84.43 0,116.71zm1460.09 499.11l-12.42 -42.21c-32.28,-111.74 -64.56,-225.97 -91.88,-337.71 -24.83,-94.36 -42.21,-163.89 -57.11,-235.9 -14.9,-64.56 -32.28,-131.61 -54.63,-223.48 -24.83,-96.84 -49.66,-186.24 -72.01,-268.18l-19.87 -72.01 84.43 4.97 0 -191.2c-22.35,2.48 -42.21,4.97 -62.08,7.45 -42.21,2.48 -84.43,7.45 -124.16,9.93 -139.06,0 -248.31,-2.48 -325.29,-7.45 -27.31,-2.48 -47.18,-4.97 -62.08,-4.97l0 181.27c9.93,0 17.38,0 22.35,-2.48l79.46 -4.97 -22.35 74.49c-49.66,156.44 -94.36,310.39 -131.61,461.87 -52.15,196.17 -91.88,384.89 -114.22,486.7 -9.93,44.7 -19.87,86.91 -27.31,124.16l-9.93 44.7 -54.63 -4.97c-12.42,0 -22.35,-2.48 -32.28,-2.48l0 178.79c0,0 0,0 2.48,0 52.15,-7.45 104.29,-9.93 158.92,-9.93 24.83,0 52.15,0 76.98,2.48 54.63,2.48 109.26,7.45 163.89,12.42l0 -188.72 -62.08 9.93 12.42 -121.67c4.97,-44.7 9.93,-89.39 12.42,-131.61l4.97 -49.66 49.66 0c52.15,2.48 104.29,4.97 158.92,4.97 52.15,0 106.78,2.48 161.4,4.97l42.21 0 7.45 42.21c7.45,52.15 14.9,104.29 22.35,158.92l9.93 94.36 -64.56 -4.97c-7.45,0 -14.9,-2.48 -19.87,-2.48l0 178.79c0,0 0,0 0,0 81.94,-9.93 161.4,-12.42 238.38,-7.45 54.63,2.48 109.26,7.45 163.89,12.42l0 -188.72c-2.48,2.48 -4.97,2.48 -4.97,2.48l-47.18 4.97zm-387.37 -459.38c-37.25,2.48 -74.49,2.48 -114.22,2.48 -4.97,0 -12.42,0 -17.38,0 -39.73,0 -79.46,0 -114.22,-2.48l-64.56 -2.48 14.9 -59.6c12.42,-62.08 29.8,-124.16 47.18,-188.72 22.35,-84.43 49.66,-168.85 79.46,-250.8l54.63 -158.92 44.7 163.89c22.35,74.49 42.21,151.47 62.08,225.97 19.87,69.53 37.25,136.57 54.63,203.62l17.38 64.56 -64.56 2.48zm-121.67 -454.42c-24.83,72.01 -47.18,146.51 -67.04,218.52 -14.9,59.6 -29.8,116.71 -44.7,176.3 39.73,0 79.46,2.48 119.19,2.48 32.28,-2.48 67.04,-2.48 99.33,-4.97 -17.38,-62.08 -34.76,-126.64 -52.15,-191.2 -17.38,-67.04 -34.76,-134.09 -54.63,-201.13zm62.08 360.06l-12.42 0c-12.42,0 -27.31,0 -42.21,0 -22.35,0 -42.21,0 -64.56,0l-9.93 0 2.48 -9.93c9.93,-39.73 19.87,-81.94 32.28,-121.67 7.45,-24.83 14.9,-49.66 22.35,-76.98l7.45 -29.8 24.83 86.91c12.42,47.18 24.83,94.36 37.25,141.54l2.48 9.93zm546.29 442c-7.45,2.48 -14.9,2.48 -19.87,4.97l-9.93 0 0 -7.45c-29.8,-94.36 -54.63,-193.69 -79.46,-288.05 -24.83,-96.84 -39.73,-163.89 -57.11,-233.42l-2.48 -4.97c-14.9,-64.56 -29.8,-131.61 -52.15,-223.48 -17.38,-64.56 -34.76,-131.61 -52.15,-196.17l-2.48 -12.42 49.66 2.48 0 -404.75 -49.66 7.45c-44.7,4.97 -81.94,7.45 -116.71,12.42 -42.21,2.48 -84.43,7.45 -121.67,9.93 0,0 0,0 -2.48,0 -131.61,0 -238.38,-2.48 -310.39,-7.45 -81.94,-7.45 -111.74,-4.97 -126.64,-4.97l-39.73 2.48 0 374.96 64.56 -2.48 -2.48 12.42c-42.21,134.09 -79.46,265.7 -111.74,394.82 -52.15,198.65 -94.36,387.37 -116.71,491.66 -4.97,27.31 -9.93,52.15 -17.38,76.98l0 7.45 -7.45 0c-37.25,-2.48 -52.15,-2.48 -59.6,-2.48l-39.73 4.97 0 372.47 69.53 0c22.35,-2.48 34.76,-2.48 39.73,-2.48 49.66,-7.45 99.33,-9.93 148.99,-9.93 22.35,0 47.18,0 72.01,2.48 74.49,4.97 146.51,9.93 218.52,17.38l47.18 4.97 0 -407.24 -49.66 7.45 2.48 -9.93c2.48,-24.83 4.97,-47.18 4.97,-72.01l2.48 -7.45 7.45 0c37.25,0 72.01,2.48 109.26,2.48 37.25,0 76.98,2.48 116.71,2.48l7.45 0 0 7.45c4.97,24.83 7.45,52.15 9.93,76.98l2.48 9.93 -9.93 0c-12.42,0 -17.38,0 -22.35,0l-39.73 4.97 0 372.47 69.53 0c22.35,-2.48 32.28,-2.48 39.73,-2.48 74.49,-9.93 148.99,-12.42 221,-7.45 74.49,4.97 146.51,9.93 218.52,17.38l47.18 4.97 0 -407.24 -49.66 7.45zm14.9 360.06l-9.93 0c-72.01,-7.45 -146.51,-12.42 -218.52,-17.38 -76.98,-4.97 -151.47,-2.48 -228.45,7.45 -7.45,0 -17.38,0 -34.76,0 -9.93,2.48 -19.87,2.48 -24.83,2.48l-9.93 0 0 -305.43 7.45 -2.48c12.42,0 34.76,0 69.53,4.97l-2.48 -19.87c-4.97,-49.66 -12.42,-99.33 -19.87,-148.99 -52.15,0 -104.29,-2.48 -153.96,-2.48 -49.66,-2.48 -99.33,-2.48 -148.99,-4.97 -4.97,42.21 -7.45,81.94 -12.42,124.16 0,9.93 -2.48,19.87 -2.48,29.8l-2.48 14.9c14.9,-2.48 29.8,-4.97 44.7,-7.45l9.93 0 0 325.29 -9.93 0c-72.01,-7.45 -146.51,-12.42 -218.52,-17.38 -74.49,-4.97 -151.47,-2.48 -228.45,7.45 -7.45,0 -17.38,0 -34.76,0 -9.93,0 -19.87,2.48 -24.83,2.48l-9.93 0 0 -305.43 7.45 -2.48c14.9,0 44.7,2.48 91.88,4.97 7.45,-34.76 17.38,-74.49 24.83,-114.22 22.35,-104.29 64.56,-293.01 116.71,-489.18 37.25,-148.99 79.46,-300.46 129.12,-451.93 -9.93,0 -22.35,0 -37.25,0l-42.21 0 0 -305.43 7.45 0c19.87,-2.48 59.6,0 121.67,4.97 74.49,4.97 181.27,7.45 315.36,7.45 39.73,-2.48 81.94,-7.45 124.16,-9.93 37.25,-2.48 74.49,-7.45 116.71,-12.42l9.93 -2.48 0 327.78 -7.45 0c-14.9,-2.48 -29.8,-2.48 -44.7,-4.97l-7.45 0c22.35,86.91 44.7,171.34 67.04,258.25 22.35,91.88 39.73,158.92 54.63,225.97 17.38,72.01 32.28,139.06 57.11,233.42 27.31,109.26 57.11,218.52 89.39,327.78 19.87,-2.48 39.73,-4.97 59.6,-9.93l9.93 0 0 325.29zm1281.3 -1400.5l-2.48 -106.78c0,-37.25 0,-74.49 0,-111.74l-1194.39 0 -2.48 114.22c-2.48,44.7 -2.48,86.91 -2.48,131.61 0,27.31 -2.48,47.18 -4.97,67.04 0,12.42 -2.48,22.35 -2.48,29.8l206.1 0c0,0 0,0 0,0 -2.48,-19.87 -4.97,-39.73 -4.97,-59.6l-4.97 -54.63 54.63 -2.48c57.11,-2.48 116.71,-4.97 181.27,-4.97l52.15 -2.48 2.48 52.15c7.45,235.9 9.93,459.38 2.48,665.48 -2.48,119.19 -7.45,245.83 -12.42,374.96l0 57.11 -57.11 -7.45c-9.93,0 -17.38,0 -24.83,0l0 186.24c2.48,0 2.48,0 2.48,0 52.15,-7.45 104.29,-9.93 158.92,-9.93 24.83,0 52.15,0 79.46,2.48 54.63,2.48 109.26,7.45 163.89,12.42l0 -196.17c-4.97,0 -9.93,0 -12.42,2.48l-57.11 7.45 -4.97 -84.43c-4.97,-101.81 -9.93,-206.1 -12.42,-307.91 0,-166.37 0,-300.46 2.48,-402.27 0,-104.29 2.48,-201.13 7.45,-295.49l0 -52.15 300.46 12.42 -7.45 76.98c0,12.42 -2.48,22.35 -2.48,29.8l206.1 0c0,0 0,0 0,0 -4.97,-39.73 -7.45,-81.94 -9.93,-124.16zm109.26 151.47c0,-22.35 -2.48,-34.76 -2.48,-39.73 -4.97,-37.25 -7.45,-76.98 -9.93,-114.22l0 -106.78c-2.48,-52.15 -2.48,-106.78 -2.48,-161.4l0 -44.7 -1388.08 0 -2.48 208.58c-2.48,44.7 -2.48,89.39 -2.48,131.61 0,22.35 -2.48,42.21 -4.97,59.6 -4.97,64.56 -4.97,86.91 -4.97,96.84l4.97 39.73 399.79 0 0 -69.53c0,-17.38 -2.48,-29.8 -2.48,-39.73l0 -9.93 7.45 0c24.83,0 47.18,0 72.01,0l7.45 -2.48 0 9.93c7.45,211.07 7.45,414.69 2.48,603.4 -2.48,104.29 -4.97,211.07 -9.93,320.33l0 9.93 -9.93 0c-19.87,-2.48 -27.31,0 -34.76,0l-39.73 2.48 0 382.4 72.01 0c17.38,-2.48 29.8,-2.48 39.73,-2.48 47.18,-7.45 96.84,-9.93 146.51,-9.93 24.83,0 47.18,0 72.01,2.48 72.01,4.97 146.51,9.93 218.52,17.38l49.66 4.97 0 -417.17 -74.49 12.42 0 -9.93c-4.97,-91.88 -9.93,-183.75 -12.42,-273.15 0,-161.4 0,-295.49 2.48,-399.79 0,-79.46 2.48,-161.4 4.97,-238.38l0 -7.45 99.33 2.48 0 9.93c-2.48,39.73 -2.48,54.63 -2.48,62.08l4.97 39.73 399.79 0 0 -69.53zm-367.51 34.76l-2.48 -7.45c0,-14.9 0,-44.7 4.97,-91.88 2.48,-2.48 2.48,-7.45 2.48,-9.93l-173.82 -7.45c-2.48,89.39 -4.97,183.75 -4.97,283.08 -2.48,101.81 -2.48,235.9 -2.48,399.79 2.48,101.81 7.45,203.62 12.42,307.91l0 14.9c22.35,-2.48 42.21,-4.97 62.08,-7.45l12.42 -2.48 0 337.71 -9.93 -2.48c-74.49,-7.45 -148.99,-14.9 -221,-17.38 -74.49,-4.97 -151.47,-2.48 -225.97,7.45 -7.45,0 -19.87,0 -37.25,0 -9.93,0 -17.38,2.48 -24.83,2.48l-7.45 0 0 -315.36 7.45 0c12.42,-2.48 37.25,0 74.49,2.48 2.48,-126.64 7.45,-248.31 9.93,-365.02 7.45,-203.62 4.97,-422.14 -2.48,-650.58 -57.11,0 -111.74,2.48 -161.4,4.97 0,14.9 2.48,29.8 4.97,47.18 0,7.45 0,19.87 2.48,34.76 0,12.42 0,19.87 0,24.83l0 9.93 -332.74 0 -2.48 -7.45c0,-14.9 0,-44.7 4.97,-91.88 2.48,-17.38 4.97,-37.25 4.97,-59.6 0,-44.7 2.48,-86.91 2.48,-131.61l2.48 -176.3 1318.55 0 0 9.93c0,54.63 0,109.26 0,161.4 0,24.83 2.48,49.66 2.48,72.01l0 34.76c0,39.73 4.97,79.46 9.93,119.19 0,7.45 0,19.87 2.48,34.76l0 34.76 -332.74 0zm1474.99 965.94l-12.42 -42.21c-32.28,-111.74 -64.56,-225.97 -91.88,-337.71 -24.83,-94.36 -42.21,-163.89 -57.11,-235.9 -14.9,-64.56 -32.28,-131.61 -54.63,-223.48 -24.83,-96.84 -49.66,-186.24 -72.01,-268.18l-19.87 -72.01 84.43 4.97 0 -191.2c-22.35,2.48 -42.21,4.97 -62.08,7.45 -42.21,2.48 -84.43,7.45 -124.16,9.93 -139.06,0 -248.31,-2.48 -325.29,-7.45 -27.31,-2.48 -47.18,-4.97 -62.08,-4.97l0 181.27c9.93,0 17.38,0 22.35,-2.48l79.46 -4.97 -22.35 74.49c-49.66,156.44 -94.36,310.39 -131.61,461.87 -52.15,196.17 -91.88,384.89 -114.22,486.7 -9.93,44.7 -19.87,86.91 -27.31,124.16l-9.93 44.7 -54.63 -4.97c-12.42,0 -22.35,-2.48 -32.28,-2.48l0 178.79c0,0 0,0 2.48,0 52.15,-7.45 104.29,-9.93 158.92,-9.93 24.83,0 52.15,0 76.98,2.48 54.63,2.48 109.26,7.45 163.89,12.42l0 -188.72 -62.08 9.93 12.42 -121.67c4.97,-44.7 9.93,-89.39 12.42,-131.61l4.97 -49.66 49.66 0c52.15,2.48 104.29,4.97 158.92,4.97 52.15,0 106.78,2.48 161.4,4.97l42.21 0 7.45 42.21c7.45,52.15 14.9,104.29 22.35,158.92l9.93 94.36 -64.56 -4.97c-7.45,0 -14.9,-2.48 -19.87,-2.48l0 178.79c0,0 0,0 0,0 81.94,-9.93 161.4,-12.42 238.38,-7.45 54.63,2.48 109.26,7.45 163.89,12.42l0 -188.72c-2.48,2.48 -4.97,2.48 -4.97,2.48l-47.18 4.97zm-387.37 -459.38c-37.25,2.48 -74.49,2.48 -114.22,2.48 -4.97,0 -12.42,0 -17.38,0 -39.73,0 -79.46,0 -114.22,-2.48l-64.56 -2.48 14.9 -59.6c12.42,-62.08 29.8,-124.16 47.18,-188.72 22.35,-84.43 49.66,-168.85 79.46,-250.8l54.63 -158.92 44.7 163.89c22.35,74.49 42.21,151.47 62.08,225.97 19.87,69.53 37.25,136.57 54.63,203.62l17.38 64.56 -64.56 2.48zm-121.67 -454.42c-24.83,72.01 -47.18,146.51 -67.04,218.52 -14.9,59.6 -29.8,116.71 -44.7,176.3 39.73,0 79.46,2.48 119.19,2.48 32.28,-2.48 67.04,-2.48 99.33,-4.97 -17.38,-62.08 -34.76,-126.64 -52.15,-191.2 -17.38,-67.04 -34.76,-134.09 -54.63,-201.13zm62.08 360.06l-12.42 0c-12.42,0 -27.31,0 -42.21,0 -22.35,0 -42.21,0 -64.56,0l-9.93 0 2.48 -9.93c9.93,-39.73 19.87,-81.94 32.28,-121.67 7.45,-24.83 14.9,-49.66 22.35,-76.98l7.45 -29.8 24.83 86.91c12.42,47.18 24.83,94.36 37.25,141.54l2.48 9.93zm546.29 442c-7.45,2.48 -14.9,2.48 -19.87,4.97l-9.93 0 0 -7.45c-29.8,-94.36 -54.63,-193.69 -79.46,-288.05 -24.83,-96.84 -39.73,-163.89 -57.11,-233.42l-2.48 -4.97c-14.9,-64.56 -29.8,-131.61 -52.15,-223.48 -17.38,-64.56 -34.76,-131.61 -52.15,-196.17l-2.48 -12.42 49.66 2.48 0 -404.75 -49.66 7.45c-44.7,4.97 -81.94,7.45 -116.71,12.42 -42.21,2.48 -84.43,7.45 -121.67,9.93 0,0 0,0 -2.48,0 -131.61,0 -238.38,-2.48 -310.39,-7.45 -81.94,-7.45 -111.74,-4.97 -126.64,-4.97l-39.73 2.48 0 374.96 64.56 -2.48 -2.48 12.42c-42.21,134.09 -79.46,265.7 -111.74,394.82 -52.15,198.65 -94.36,387.37 -116.71,491.66 -4.97,27.31 -9.93,52.15 -17.38,76.98l0 7.45 -7.45 0c-37.25,-2.48 -52.15,-2.48 -59.6,-2.48l-39.73 4.97 0 372.47 69.53 0c22.35,-2.48 34.76,-2.48 39.73,-2.48 49.66,-7.45 99.33,-9.93 148.99,-9.93 22.35,0 47.18,0 72.01,2.48 74.49,4.97 146.51,9.93 218.52,17.38l47.18 4.97 0 -407.24 -49.66 7.45 2.48 -9.93c2.48,-24.83 4.97,-47.18 4.97,-72.01l2.48 -7.45 7.45 0c37.25,0 72.01,2.48 109.26,2.48 37.25,0 76.98,2.48 116.71,2.48l7.45 0 0 7.45c4.97,24.83 7.45,52.15 9.93,76.98l2.48 9.93 -9.93 0c-12.42,0 -17.38,0 -22.35,0l-39.73 4.97 0 372.47 69.53 0c22.35,-2.48 32.28,-2.48 39.73,-2.48 74.49,-9.93 148.99,-12.42 221,-7.45 74.49,4.97 146.51,9.93 218.52,17.38l47.18 4.97 0 -407.24 -49.66 7.45zm14.9 360.06l-9.93 0c-72.01,-7.45 -146.51,-12.42 -218.52,-17.38 -76.98,-4.97 -151.47,-2.48 -228.45,7.45 -7.45,0 -17.38,0 -34.76,0 -9.93,2.48 -19.87,2.48 -24.83,2.48l-9.93 0 0 -305.43 7.45 -2.48c12.42,0 34.76,0 69.53,4.97l-2.48 -19.87c-4.97,-49.66 -12.42,-99.33 -19.87,-148.99 -52.15,0 -104.29,-2.48 -153.96,-2.48 -49.66,-2.48 -99.33,-2.48 -148.99,-4.97 -4.97,42.21 -7.45,81.94 -12.42,124.16 0,9.93 -2.48,19.87 -2.48,29.8l-2.48 14.9c14.9,-2.48 29.8,-4.97 44.7,-7.45l9.93 0 0 325.29 -9.93 0c-72.01,-7.45 -146.51,-12.42 -218.52,-17.38 -74.49,-4.97 -151.47,-2.48 -228.45,7.45 -7.45,0 -17.38,0 -34.76,0 -9.93,0 -19.87,2.48 -24.83,2.48l-9.93 0 0 -305.43 7.45 -2.48c14.9,0 44.7,2.48 91.88,4.97 7.45,-34.76 17.38,-74.49 24.83,-114.22 22.35,-104.29 64.56,-293.01 116.71,-489.18 37.25,-148.99 79.46,-300.46 129.12,-451.93 -9.93,0 -22.35,0 -37.25,0l-42.21 0 0 -305.43 7.45 0c19.87,-2.48 59.6,0 121.67,4.97 74.49,4.97 181.27,7.45 315.36,7.45 39.73,-2.48 81.94,-7.45 124.16,-9.93 37.25,-2.48 74.49,-7.45 116.71,-12.42l9.93 -2.48 0 327.78 -7.45 0c-14.9,-2.48 -29.8,-2.48 -44.7,-4.97l-7.45 0c22.35,86.91 44.7,171.34 67.04,258.25 22.35,91.88 39.73,158.92 54.63,225.97 17.38,72.01 32.28,139.06 57.11,233.42 27.31,109.26 57.11,218.52 89.39,327.78 19.87,-2.48 39.73,-4.97 59.6,-9.93l9.93 0 0 325.29zm1035.47 -1604.11c-94.36,-22.35 -186.24,-24.83 -278.11,-7.45 -39.73,7.45 -163.89,32.28 -280.6,126.64 -9.93,9.93 -253.28,218.52 -245.83,672.93l0 22.35c4.97,116.71 17.38,427.1 238.38,610.85 47.18,39.73 176.3,131.61 350.12,134.09 89.39,-2.48 166.37,-22.35 216.03,-42.21l79.46 -34.76 -7.45 76.98 228.45 0c-2.48,-12.42 -2.48,-24.83 -4.97,-37.25 -4.97,-34.76 -7.45,-69.53 -12.42,-104.29 0,-116.71 2.48,-203.62 9.93,-268.18 0,-14.9 2.48,-27.31 2.48,-39.73l-216.03 0c0,2.48 0,4.97 0,7.45 2.48,7.45 2.48,14.9 2.48,24.83l4.97 39.73 -19.87 17.38c-62.08,57.11 -126.64,81.94 -161.4,89.39 -22.35,7.45 -89.39,24.83 -173.82,4.97 -2.48,-2.48 -81.94,-19.87 -153.96,-84.43 -96.84,-81.94 -161.4,-263.21 -163.89,-449.45 -4.97,-168.85 44.7,-307.91 136.57,-392.34 59.6,-54.63 193.69,-136.57 315.36,-136.57 67.04,0 126.64,17.38 183.75,44.7l29.8 17.38 -2.48 52.15c-2.48,12.42 -2.48,22.35 -4.97,32.28 0,2.48 0,7.45 0,9.93l230.93 0c0,-9.93 -2.48,-24.83 -2.48,-39.73 -7.45,-59.6 -9.93,-144.02 -9.93,-250.8 2.48,-37.25 7.45,-69.53 12.42,-104.29 2.48,-12.42 2.48,-24.83 4.97,-39.73l-243.35 0 7.45 64.56 -72.01 -17.38zm414.69 -91.88l9.93 -52.15 -417.17 0 -49.66 7.45 4.97 29.8 -12.42 -2.48c-34.76,-4.97 -72.01,-7.45 -106.78,-7.45 -47.18,0 -94.36,4.97 -139.06,14.9 -126.64,22.35 -235.9,72.01 -325.29,146.51 -12.42,9.93 -288.05,245.83 -280.6,752.39l0 22.35c4.97,126.64 19.87,466.83 273.15,680.38 54.63,44.7 203.62,153.96 412.2,156.44 57.11,0 114.22,-7.45 173.82,-22.35l12.42 -4.97 -4.97 27.31 449.45 0 -9.93 -52.15c-4.97,-34.76 -9.93,-64.56 -12.42,-94.36l-12.42 -96.84c0,-109.26 2.48,-193.69 9.93,-253.28 4.97,-72.01 4.97,-94.36 4.97,-106.78l-4.97 -39.73 -409.72 0 2.48 72.01c0,19.87 0,34.76 2.48,44.7 0,2.48 0,4.97 0,7.45l0 4.97 -2.48 2.48c-42.21,32.28 -81.94,44.7 -101.81,52.15 -19.87,4.97 -67.04,17.38 -126.64,2.48 -4.97,-2.48 -62.08,-17.38 -114.22,-62.08 -72.01,-62.08 -126.64,-223.48 -129.12,-379.92 -2.48,-139.06 34.76,-253.28 106.78,-317.84 44.7,-44.7 156.44,-111.74 253.28,-111.74 34.76,0 69.53,7.45 101.81,19.87l4.97 2.48 0 14.9c-2.48,9.93 -2.48,24.83 -2.48,42.21l-2.48 76.98 384.89 0 39.73 -4.97 4.97 -39.73c0,-12.42 0,-34.76 -4.97,-101.81 -7.45,-54.63 -9.93,-134.09 -9.93,-233.42 2.48,-32.28 7.45,-64.56 12.42,-96.84 2.48,-32.28 9.93,-64.56 14.9,-99.33zm-37.25 2.48c-4.97,32.28 -9.93,62.08 -12.42,91.88 -4.97,32.28 -9.93,64.56 -12.42,96.84 0,101.81 2.48,183.75 7.45,240.87 4.97,49.66 7.45,79.46 7.45,94.36l-2.48 14.9 -357.57 0 2.48 -42.21c0,-17.38 0,-29.8 2.48,-37.25 0,-9.93 0,-19.87 2.48,-27.31 0,-4.97 0,-9.93 0,-12.42 -44.7,-24.83 -94.36,-37.25 -141.54,-37.25 -2.48,0 -4.97,0 -7.45,0 -104.29,0 -223.48,74.49 -273.15,119.19 -79.46,74.49 -121.67,196.17 -119.19,347.64 2.48,166.37 62.08,332.74 144.02,404.75 59.6,52.15 126.64,69.53 129.12,69.53 67.04,14.9 121.67,0 141.54,-4.97 29.8,-7.45 81.94,-24.83 134.09,-72.01 -2.48,-2.48 -2.48,-7.45 -2.48,-12.42 0,-7.45 0,-12.42 0,-19.87 -2.48,-9.93 -2.48,-22.35 -2.48,-39.73l-2.48 -34.76 342.67 0 2.48 7.45c0,14.9 0,47.18 -7.45,96.84 -4.97,62.08 -7.45,148.99 -7.45,258.25 2.48,32.28 7.45,67.04 12.42,101.81 2.48,29.8 7.45,62.08 12.42,94.36l2.48 9.93 -367.51 0 2.48 -7.45c0,-9.93 0,-17.38 0,-24.83 2.48,-2.48 2.48,-4.97 2.48,-7.45 -52.15,19.87 -129.12,42.21 -218.52,42.21 -2.48,0 -4.97,0 -7.45,-2.48 -196.17,0 -337.71,-101.81 -389.85,-146.51 -240.87,-201.13 -255.76,-531.39 -260.73,-655.55 0,-7.45 0,-14.9 0,-19.87l0 -4.97c-4.97,-409.72 188.72,-638.17 245.83,-700.25 12.42,-9.93 19.87,-17.38 22.35,-19.87 129.12,-106.78 263.21,-131.61 307.91,-141.54 96.84,-17.38 193.69,-14.9 293.01,4.97 0,0 0,-2.48 -2.48,-4.97 0,-7.45 0,-12.42 0,-19.87l-2.48 -17.38 384.89 0 -4.97 17.38zm715.15 81.94c-9.93,2.48 -19.87,2.48 -27.31,4.97 -32.28,2.48 -64.56,7.45 -96.84,9.93l-4.97 0c-101.81,0 -183.75,-2.48 -243.35,-7.45 -9.93,-2.48 -19.87,-2.48 -29.8,-2.48l0 173.82c0,0 0,0 0,0l81.94 -9.93 2.48 57.11c9.93,211.07 9.93,422.14 4.97,625.75 -2.48,153.96 -7.45,310.39 -12.42,464.35l-2.48 57.11 -57.11 -4.97c-4.97,-2.48 -12.42,-2.48 -17.38,-2.48l0 173.82c0,0 0,0 0,0 54.63,-7.45 106.78,-9.93 158.92,-9.93 27.31,0 54.63,0 79.46,2.48 54.63,2.48 109.26,7.45 163.89,12.42l0 -183.75c-7.45,2.48 -12.42,2.48 -19.87,2.48l-57.11 7.45 -4.97 -116.71c-4.97,-96.84 -9.93,-191.2 -14.9,-288.05 0,-310.39 4.97,-553.74 9.93,-727.56l2.48 -54.63 57.11 -2.48c7.45,0 17.38,0 27.31,2.48l0 -183.75zm9.93 280.6l86.91 9.93 0 -402.27 -49.66 7.45c-32.28,4.97 -59.6,7.45 -86.91,12.42 -29.8,2.48 -59.6,7.45 -91.88,9.93 -96.84,0 -176.3,-2.48 -230.93,-7.45 -67.04,-7.45 -86.91,-7.45 -96.84,-4.97l-39.73 2.48 0 369.99 86.91 -2.48 0 9.93c7.45,191.2 7.45,379.92 2.48,563.67 -2.48,121.67 -7.45,255.76 -12.42,409.72l0 7.45 -7.45 0c-17.38,0 -24.83,0 -29.8,0l-39.73 4.97 0 367.51 69.53 0c22.35,0 34.76,-2.48 39.73,-2.48 49.66,-4.97 99.33,-9.93 148.99,-9.93 22.35,0 47.18,2.48 72.01,2.48 72.01,4.97 144.02,9.93 218.52,17.38l47.18 4.97 0 -402.27 -49.66 7.45c-7.45,2.48 -14.9,2.48 -22.35,4.97l-9.93 0 0 -12.42c-4.97,-96.84 -9.93,-191.2 -14.9,-285.56 0,-275.63 4.97,-501.6 9.93,-672.93l0 -9.93zm-29.8 970.91l2.48 49.66c22.35,-2.48 47.18,-4.97 69.53,-9.93l9.93 0 0 320.33 -9.93 0c-74.49,-7.45 -148.99,-12.42 -218.52,-17.38 -76.98,-4.97 -151.47,-2.48 -228.45,7.45 -7.45,0 -19.87,0 -34.76,0l-34.76 2.48 0 -300.46 7.45 -2.48c12.42,0 34.76,0 69.53,2.48 4.97,-173.82 9.93,-317.84 12.42,-454.42 4.97,-198.65 4.97,-404.75 -4.97,-610.85 -4.97,0 -9.93,0 -14.9,0 -7.45,2.48 -17.38,2.48 -34.76,2.48 -9.93,0 -19.87,0 -24.83,0l-9.93 0 0 -300.46 7.45 0c14.9,-2.48 44.7,0 91.88,4.97 57.11,4.97 136.57,7.45 235.9,7.45 29.8,-2.48 62.08,-7.45 94.36,-9.93 27.31,-4.97 54.63,-7.45 86.91,-12.42l9.93 -2.48 0 322.81 -9.93 0c-24.83,-2.48 -49.66,-4.97 -76.98,-7.45 -4.97,171.34 -9.93,414.69 -9.93,720.11 4.97,96.84 9.93,191.2 14.9,288.05z"/>
    <path class="fil1" d="M35025.48 1801.84c-57.11,-129.12 -141.54,-221 -248.31,-268.18 -59.6,-27.31 -129.12,-39.73 -206.1,-37.25 -62.08,0 -119.19,7.45 -178.79,22.35 -116.71,39.73 -211.07,129.12 -273.15,265.7 -64.56,146.51 -101.81,307.91 -104.29,479.25 -2.48,173.82 24.83,337.71 84.43,494.15 57.11,146.51 144.02,245.83 255.76,297.98 64.56,27.31 134.09,42.21 208.58,37.25 101.81,4.97 191.2,-17.38 268.18,-67.04 96.84,-64.56 171.34,-168.85 221,-310.39 49.66,-148.99 74.49,-302.94 69.53,-464.35 -4.97,-158.92 -37.25,-310.39 -96.84,-449.45zm-218.52 881.52c-39.73,62.08 -72.01,96.84 -109.26,116.71 -39.73,22.35 -84.43,34.76 -129.12,34.76 -44.7,0 -89.39,-12.42 -131.61,-32.28 -34.76,-19.87 -74.49,-54.63 -119.19,-114.22 -69.53,-96.84 -106.78,-233.42 -106.78,-412.2 0,-163.89 37.25,-293.01 109.26,-382.4l9.93 -12.42c29.8,-34.76 67.04,-84.43 136.57,-109.26 114.22,-37.25 216.03,17.38 245.83,34.76 34.76,22.35 64.56,52.15 94.36,91.88 96.84,134.09 96.84,293.01 96.84,379.92 -2.48,173.82 -32.28,310.39 -96.84,404.75zm-129.12 -824.41c-17.38,-9.93 -67.04,-37.25 -129.12,-37.25 -19.87,0 -39.73,2.48 -62.08,9.93 -52.15,17.38 -81.94,54.63 -106.78,86.91 -4.97,4.97 -7.45,9.93 -12.42,14.9 -62.08,76.98 -94.36,193.69 -94.36,342.67 0,163.89 32.28,290.53 94.36,374.96 39.73,49.66 72.01,81.94 96.84,96.84 64.56,32.28 144.02,32.28 203.62,0 27.31,-14.9 52.15,-44.7 89.39,-99.33 54.63,-84.43 84.43,-208.58 84.43,-369.99 0,-79.46 0,-225.97 -84.43,-345.16 -24.83,-32.28 -49.66,-57.11 -79.46,-74.49zm49.66 769.78c-42.21,62.08 -62.08,79.46 -76.98,86.91 -24.83,14.9 -52.15,22.35 -81.94,22.35 -29.8,0 -59.6,-7.45 -86.91,-22.35 -22.35,-9.93 -52.15,-39.73 -84.43,-86.91 -59.6,-76.98 -89.39,-196.17 -89.39,-352.61 0,-141.54 29.8,-248.31 86.91,-320.33l12.42 -14.9c24.83,-29.8 49.66,-62.08 91.88,-76.98 14.9,-4.97 32.28,-7.45 49.66,-7.45 54.63,0 99.33,24.83 111.74,32.28 24.83,14.9 47.18,37.25 67.04,67.04 72.01,99.33 76.98,218.52 76.98,322.81 0,153.96 -24.83,273.15 -76.98,350.12zm384.89 -864.14c-64.56,-153.96 -163.89,-260.73 -295.49,-317.84 -72.01,-34.76 -153.96,-49.66 -245.83,-47.18 -7.45,0 -12.42,0 -22.35,0 -59.6,0 -121.67,9.93 -183.75,27.31 -146.51,47.18 -258.25,156.44 -332.74,317.84 -72.01,158.92 -111.74,332.74 -114.22,518.98 -2.48,183.75 27.31,362.54 91.88,528.91 64.56,171.34 168.85,288.05 307.91,352.61 74.49,32.28 161.4,49.66 245.83,44.7 9.93,0 19.87,0 27.31,0 106.78,0 206.1,-27.31 293.01,-81.94 116.71,-76.98 203.62,-198.65 260.73,-360.06 54.63,-158.92 79.46,-327.78 74.49,-499.11 -4.97,-171.34 -39.73,-335.22 -106.78,-484.21zm-2.48 970.91c-52.15,156.44 -136.57,270.66 -245.83,342.67 -86.91,54.63 -188.72,81.94 -297.98,76.98 -7.45,0 -17.38,0 -24.83,0 -74.49,0 -146.51,-14.9 -211.07,-42.21 -129.12,-59.6 -225.97,-171.34 -288.05,-332.74 -62.08,-163.89 -91.88,-337.71 -89.39,-516.49 4.97,-178.79 42.21,-350.12 111.74,-504.08 69.53,-153.96 173.82,-253.28 310.39,-297.98 64.56,-19.87 131.61,-27.31 196.17,-24.83 86.91,-4.97 163.89,9.93 230.93,42.21 121.67,52.15 216.03,153.96 278.11,297.98 64.56,146.51 99.33,305.43 104.29,471.8 4.97,168.85 -19.87,332.74 -74.49,486.7zm1437.74 -672.93c2.48,-69.53 4.97,-144.02 7.45,-253.28l2.48 -67.04 57.11 0c4.97,0 12.42,2.48 17.38,2.48l0 -201.13c-7.45,2.48 -14.9,2.48 -24.83,4.97 -29.8,2.48 -59.6,7.45 -89.39,9.93 -106.78,0 -181.27,-2.48 -238.38,-7.45 -9.93,-2.48 -17.38,-2.48 -24.83,-2.48l0 191.2 67.04 -7.45 7.45 114.22 2.48 218.52c2.48,119.19 2.48,250.8 2.48,347.64l0 208.58 -99.33 -183.75c-79.46,-146.51 -156.44,-297.98 -225.97,-449.45 -67.04,-146.51 -131.61,-297.98 -191.2,-449.45 -106.78,0 -213.55,-2.48 -320.33,-2.48l0 211.07c0,0 2.48,0 2.48,0l67.04 -7.45 4.97 57.11c7.45,211.07 9.93,422.14 4.97,623.27 -2.48,139.06 -7.45,280.6 -9.93,422.14l-2.48 54.63 -57.11 -4.97c-2.48,0 -7.45,0 -9.93,0l0 191.2c0,0 0,0 0,0 14.9,-2.48 27.31,-2.48 39.73,-4.97l240.87 0c42.21,2.48 81.94,7.45 121.67,9.93l0 -201.13c-9.93,2.48 -17.38,2.48 -27.31,4.97l-57.11 7.45 -17.38 -54.63c-4.97,-104.29 -7.45,-203.62 -12.42,-305.43l0 -139.06c0,-44.7 2.48,-86.91 2.48,-129.12l4.97 -183.75 94.36 158.92c86.91,148.99 171.34,305.43 245.83,461.87 57.11,121.67 111.74,245.83 161.4,369.99 302.94,4.97 325.29,7.45 332.74,7.45 2.48,0 2.48,0 4.97,0l0 -211.07c-4.97,0 -9.93,2.48 -17.38,2.48l-54.63 4.97 -2.48 -54.63c-7.45,-146.51 -12.42,-275.63 -14.9,-419.65 0,-32.28 0,-67.04 0,-116.71 2.48,-86.91 2.48,-153.96 4.97,-228.45zm99.33 2.48c0,-59.6 2.48,-124.16 4.97,-211.07l0 -9.93 9.93 0c4.97,0 12.42,2.48 17.38,2.48l49.66 4.97 0 -422.14 -52.15 9.93c-24.83,4.97 -52.15,7.45 -81.94,12.42 -14.9,2.48 -29.8,4.97 -44.7,7.45l-37.25 2.48c-2.48,0 -2.48,0 -4.97,0 -91.88,0 -166.37,-2.48 -218.52,-7.45 -62.08,-7.45 -81.94,-4.97 -91.88,-4.97l-39.73 4.97 0 384.89 74.49 -2.48 2.48 230.93c0,42.21 2.48,84.43 2.48,129.12l0 37.25 -17.38 -34.76c-42.21,-81.94 -84.43,-166.37 -121.67,-250.8 -72.01,-156.44 -141.54,-315.36 -201.13,-476.76l-12.42 -27.31 -29.8 0c-124.16,-2.48 -250.8,-4.97 -377.44,-4.97l-76.98 -2.48 0 412.2 76.98 -2.48 0 9.93c4.97,191.2 7.45,379.92 2.48,561.19 -2.48,109.26 -4.97,228.45 -9.93,365.02l0 9.93 -7.45 0c-9.93,0 -17.38,0 -22.35,0l-39.73 4.97 0 384.89 69.53 -2.48c17.38,0 32.28,0 39.73,0 7.45,-2.48 14.9,-2.48 22.35,-2.48l9.93 -2.48 233.42 0c62.08,4.97 119.19,9.93 173.82,14.9l47.18 4.97 0 -422.14 -49.66 9.93c-14.9,2.48 -29.8,4.97 -44.7,7.45l-7.45 0 -2.48 -9.93c-2.48,-79.46 -4.97,-161.4 -7.45,-240.87l0 -104.29 14.9 29.8c52.15,94.36 101.81,191.2 146.51,285.56 62.08,129.12 119.19,263.21 168.85,397.3l12.42 27.31 29.8 0c218.52,2.48 345.16,7.45 362.54,7.45 7.45,0 22.35,2.48 39.73,2.48l69.53 2.48 0 -407.24 -39.73 -2.48c-4.97,-2.48 -12.42,-2.48 -27.31,-2.48l-9.93 2.48 0 -9.93c-4.97,-116.71 -9.93,-233.42 -12.42,-362.54 0,-29.8 0,-64.56 0,-114.22 2.48,-84.43 4.97,-151.47 7.45,-225.97zm-42.21 342.67c2.48,141.54 7.45,265.7 14.9,407.24 32.28,-2.48 54.63,-4.97 67.04,-2.48l7.45 0 0 337.71 -9.93 0c-4.97,0 -12.42,0 -24.83,0 -17.38,0 -32.28,-2.48 -34.76,-2.48 -14.9,-2.48 -91.88,-2.48 -367.51,-7.45l-4.97 0 -2.48 -4.97c-52.15,-136.57 -109.26,-270.66 -171.34,-399.79 -69.53,-146.51 -146.51,-290.53 -228.45,-432.07 0,29.8 -2.48,62.08 -2.48,96.84l0 139.06c4.97,99.33 7.45,196.17 12.42,290.53l4.97 0c27.31,-2.48 57.11,-7.45 86.91,-12.42l9.93 -2.48 0 340.19 -9.93 0c-52.15,-4.97 -109.26,-9.93 -173.82,-14.9l-235.9 0c-12.42,0 -24.83,2.48 -37.25,2.48 -7.45,2.48 -19.87,2.48 -34.76,2.48 -9.93,0 -19.87,0 -24.83,0l-9.93 2.48 0 -317.84 7.45 -2.48c12.42,0 32.28,0 62.08,2.48 4.97,-153.96 7.45,-288.05 9.93,-412.2 4.97,-196.17 2.48,-402.27 -4.97,-608.37 0,0 -2.48,0 -2.48,0 -7.45,0 -19.87,2.48 -37.25,2.48l-34.76 0 0 -337.71 9.93 0c9.93,0 22.35,0 32.28,0 126.64,0 253.28,2.48 377.44,4.97l7.45 0 0 4.97c62.08,161.4 131.61,322.81 203.62,479.25 64.56,139.06 134.09,278.11 206.1,414.69 0,-91.88 0,-206.1 -2.48,-310.39 0,-37.25 0,-124.16 -2.48,-221l0 -47.18c-2.48,0 -4.97,0 -7.45,0 -7.45,2.48 -19.87,2.48 -34.76,2.48 -9.93,0 -17.38,0 -22.35,0l-9.93 0 0 -315.36 7.45 -2.48c12.42,0 42.21,0 86.91,4.97 52.15,4.97 129.12,9.93 223.48,9.93 29.8,-4.97 59.6,-7.45 89.39,-12.42 27.31,-2.48 57.11,-7.45 84.43,-12.42l9.93 -2.48 0 340.19 -9.93 0c-22.35,-2.48 -44.7,-4.97 -67.04,-7.45l0 4.97c-2.48,109.26 -4.97,186.24 -7.45,255.76 -2.48,74.49 -4.97,139.06 -4.97,225.97 0,49.66 0,84.43 0,116.71z"/>
   </g>
  </g>
 </g>
</svg>
